<svg xmlns="http://www.w3.org/2000/svg" xmlns:xlink="http://www.w3.org/1999/xlink" fill="none" version="1.1" width="120" height="120" viewBox="0 0 120 120"><defs><clipPath id="master_svg0_51_555"><rect x="0" y="0" width="120" height="120" rx="0"/></clipPath><clipPath id="master_svg1_51_539"><rect x="2" y="5" width="117" height="111" rx="0"/></clipPath></defs><g clip-path="url(#master_svg0_51_555)"><g clip-path="url(#master_svg1_51_539)"><g><path d="M107.131671875,32.39733828125C97.994971875,16.988618281249998,81.319771875,4.33860828125,52.537271875,8.24875628125C23.756171875,12.15890828125,13.247791875,29.17753828125,6.851981875,47.34763828125Q0.45616187499999983,65.51633828125,9.136571875,77.59133828125L10.085421875,77.85103828125C9.149731875,82.73773828125,11.522501875,88.65393828125,17.416871875,88.74533828125C17.748571875,88.75063828125,18.067071875,88.73873828125,18.381571875,88.72153828125L15.816671875,104.33953828125Q16.560171875,106.10983828125,25.355071875,105.76533828125Q34.149971875,105.42083828125,51.281871875,112.89573828125L54.594271875,113.47073828125Q56.535371875,112.89573828125,65.330271875,109.44473828125Q74.125171875,105.99453828125,93.198171875,106.80013828125L93.090171875,100.56193828125L94.454871875,100.93563828125C103.934171875,97.71583828125,112.043671875,81.15563828125,115.127671875,70.92113828125C118.211671875,60.68663828125,116.270671875,47.80733828125,107.133671875,32.39733828125L107.131671875,32.39733828125Z" fill="#FCF9F2" fill-opacity="1" style="mix-blend-mode:passthrough"/></g><g><g><path d="M18.586937499999998,90.6164640625C18.115837499999998,90.6164640625,17.6341375,90.5925640625,17.1446375,90.5448640625C11.175157500000001,89.9605640625,8.6721075,87.1435640625,7.6232475,84.8830640625C5.7295075,80.7993640625,7.3008245,76.0385040625,9.4038075,72.9432440625C10.5329475,71.2816640625,12.3161475,70.3249955625,14.427027500000001,70.2481458425C15.9970275,70.1911707625,17.6960375,70.6244520625,19.2067375,71.4698240625C19.435737500000002,71.5970240625,20.0371375,71.6884440625,20.5688375,71.7692740625C22.583637500000002,72.0753540625,25.9539375,72.5868140625,28.0319375,77.10117406250001C29.4611375,80.2057040625,29.1703375,83.80846406250001,27.2726375,86.5022640625C25.4025375,89.1562640625,22.2875375,90.6150640625,18.5856375,90.6150640625L18.586937499999998,90.6164640625ZM13.5505675,75.7999940625C11.9173875,78.2035840625,11.3646675,80.9940640625,12.1753275,82.7431640625C13.0728475,84.6763640625,15.6377575,85.3163640625,17.6302375,85.5110640625C20.1543375,85.7588640625,22.123037500000002,85.0711640625,23.1758375,83.5778640625C24.0470375,82.3416640625,24.1589375,80.7158640625,23.4746375,79.2304840625C22.5323375,77.1846440625,21.5124375,77.0296240625,19.820037499999998,76.7725640625C18.868537500000002,76.6281340625,17.7894375,76.4638340625,16.7668975,75.8927440625C15.7798875,75.3402140625,14.129607499999999,74.9466740625,13.5492475,75.7999940625L13.5505675,75.7999940625Z" fill="#B27534" fill-opacity="1" style="mix-blend-mode:passthrough"/></g><g><path d="M94.1950109375,93.69195625C89.9416809375,93.69195625,86.3831909375,91.94555625,84.4039009375,88.87815625C82.6022859375,86.08495625,82.3693489375,82.58691625,83.7814349375,79.51815625C85.8594109375,75.00246625,89.2310309375,74.49100625,91.2445409375,74.18625625C91.7762009375,74.10543625,92.3776209375,74.01400625,92.6066109375,73.88679625C94.1174109375,73.04143225,95.8150109375,72.60815075,97.3864109375,72.6651259C99.4972109375,72.74197555,101.2804109375,73.69864625,102.40961093749999,75.36022625C104.8573109375,78.96296625,105.12451093749999,84.28555625,103.0597109375,88.30305625C101.3291109375,91.66865625,98.1865109375,93.63235625,94.4372109375,93.69065625C94.3569109375,93.69065625,94.2753109375,93.69195625,94.1950109375,93.69195625ZM97.1008109375,77.71877625C96.4191109375,77.71877625,95.6216109375,77.98643625,95.0478109375,78.30708625C94.0253109375,78.87949625,92.9461109375,79.04247624999999,91.9946709375,79.18690624999999C90.3035909375,79.44396625,89.2823709375,79.59898625,88.3401009375,81.64482625C87.6597209375,83.12485625,87.7623709375,84.79835625,88.6164609375,86.12205625C89.6876909375,87.78105625,91.72619093750001,88.67005625,94.3595109375,88.63165625C96.2822109375,88.60125625,97.7075109375,87.70815625,98.5984109375,85.97635625C99.8118109375,83.61645625,99.6670109375,80.28005625,98.26411093749999,78.21433625C98.0220109375,77.85657625,97.5917109375,77.71877625,97.1008109375,77.71877625Z" fill="#B27534" fill-opacity="1" style="mix-blend-mode:passthrough"/></g><g><path d="M54.5947296875,116.000094921875C54.4526296875,116.000094921875,54.3091296875,115.988094921875,54.1683296875,115.96299492187501L50.8559296875,115.387894921875C50.5243296875,115.330894921875,50.2084296875,115.206394921875,49.9255296875,115.023494921875C49.8202296875,114.955894921875,39.1566296875,108.141294921875,31.2710296875,108.450094921875C22.3234796875,108.801194921875,19.1861096875,107.959794921875,18.8584196875,107.863094921875C17.8516696875,107.564894921875,17.134449687500002,106.667894921875,17.0607496875,105.614494921875L15.8842340375,88.809204921875C15.7868494875,87.416604921875,16.8291306875,86.206855921875,18.2135696875,86.108805211875C19.5993296875,86.009428321875,20.7982196875,87.060171921875,20.8956096875,88.454104921875L21.9313096875,103.251994921875C23.5473696875,103.418894921875,26.434729687500003,103.577894921875,31.0749296875,103.396394921875C39.6290296875,103.063794921875,49.9149296875,109.082094921875,52.1943296875,110.487994921875L54.4065296875,110.872194921875C55.4264296875,110.523694921875,58.1532296875,109.547194921875,64.41872968749999,107.089294921875C71.6620296875,104.248394921875,84.9590296875,104.117194921875,90.6416296875,104.204694921875L90.4336296875,92.243674921875C90.4099296875,90.847104921875,91.5141296875,89.695654921875,92.9011296875,89.670484921875C94.2869296875,89.645304921875,95.4318296875,90.758334921875,95.4568296875,92.154904921875L95.7095296875,106.756694921875C95.7214296875,107.453694921875,95.4476296875,108.124094921875,94.9528296875,108.610394921875C94.4580296875,109.096694921875,93.7855296875,109.356394921875,93.0933296875,109.327194921875C92.9077296875,109.319294921875,74.44152968750001,108.585194921875,66.2427296875,111.801094921875C57.4491296875,115.250094921875,55.3869296875,115.871494921875,55.3040296875,115.895394921875C55.0737296875,115.964294921875,54.8342296875,115.998694921875,54.5947296875,115.998694921875L54.5947296875,116.000094921875Z" fill="#B27534" fill-opacity="1" style="mix-blend-mode:passthrough"/></g><g><path d="M92.65108125,77.822052734375C91.28378125,77.822052734375,90.16388125,76.718352734375,90.14018125,75.337652734375L89.91908125,62.610802734375C81.72168125,60.533162734375,73.68478125,61.939012734375,68.23648125,63.559522734375C61.79458125,65.475552734375,57.42278125,68.113652734375,57.37938125,68.140152734375C56.30688125,68.793352734375,54.93028125,68.546952734375,54.14468125,67.592852734375C53.89198125,67.354352734375,51.62578125,65.401352734375,41.74518125,61.801212734375C32.89498125,58.576102734375,24.68177125,59.714302734374996,21.67074125,60.440412734375C21.49966125,62.993732734375,21.20092125,68.255452734375,21.00878125,71.752152734375C20.93246125,73.146052734375,19.75068125,74.215352734375,18.36229125,74.138552734375C16.97784225,74.061652734375,15.91582195,72.869152734375,15.9921498,71.473852734375C16.69095125,58.699332734375,16.793601250000002,58.281942734375,16.86334925,58.005012734375C16.99100125,57.488262734375,17.33580125,56.770092734375,18.25042125,56.281162734375C20.22971125,55.219811734375,31.56578125,52.712862734375,43.45468125,57.045692734375C50.68218125,59.679842734375,54.42228125,61.613052734375,56.35028125,62.936752734375C58.30588125,61.907212734375,61.95778125,60.168782734375,66.66518125,58.753652734375C76.03778125,55.937972734375,85.19458125,55.772342734375,93.14468125,58.273992734375C94.17768125,58.598622734375,94.88838125,59.553962734375,94.90678125,60.643142734375L95.15948125,75.24885273437499C95.18318125,76.645452734375,94.07898125,77.796952734375,92.69188125,77.822052734375C92.67748125,77.822052734375,92.66168125,77.822052734375,92.64718125,77.822052734375L92.65108125,77.822052734375ZM54.00908125,67.410052734375L54.00908125,67.412652734375Q54.00908125,67.411352734375,54.00908125,67.410052734375ZM54.00648125,67.404752734375Q54.00778125,67.407352734375,54.00908125,67.408752734375Q54.00778125,67.406052734375,54.00648125,67.404752734375Z" fill="#B27534" fill-opacity="1" style="mix-blend-mode:passthrough"/></g><g><path d="M54.82298375,114.8497640625C54.78877375,114.8497640625,54.75455375,114.8497640625,54.71902375,114.8471640625C53.33326375,114.7901640625,52.25413075,113.61356406249999,52.31072231,112.2182640625L54.13866375,66.7951040625C54.19525375,65.3998540625,55.36387375,64.3133280625,56.74963375,64.3703072025C58.13539375,64.4272822625,59.21452375,65.6039040625,59.15793375,66.9991540625L57.32998375,112.42236406250001C57.274713750000004,113.78316406249999,56.16268375,114.8484640625,54.82167375,114.8484640625L54.82298375,114.8497640625Z" fill="#B27534" fill-opacity="1" style="mix-blend-mode:passthrough"/></g><g><path d="M94.4538,103.4653C93.4049,103.4653,92.4271,102.7988,92.0744,101.7441C91.6309,100.4204,92.3376,98.9854,93.651,98.5388C97.3042,97.2986,101.2483,93.3845,105.056,87.2231C108.152,82.2132,111.018,75.8438,112.723,70.1873C115.828,59.8799,113.221,47.6022,104.974,33.6947C97.4608,21.0222,82.3214,6.75566,52.8744,10.75458C24.7459,14.57596,15.2693,31.0063,9.21964,48.1918C6.76923,55.1549,6.3481,61.9589,7.96811,68.4157C9.18279,73.2573,11.15812,76.0889,11.17786,76.1168C11.99116,77.2483,11.73717,78.8251,10.61329,79.644C9.489419999999999,80.4628,7.91679,80.2058,7.10218,79.0742C7.00216,78.9351,4.6386,75.6053,3.16599,69.9209C1.826286,64.75200000000001,0.96825,56.4931,4.48463,46.5024C7.00611,39.3394,11.30946,28.865,19.5319,20.6552C27.7004,12.49699,38.3877,7.6195699999999995,52.2019,5.742014C84.3652,1.3734099999999998,100.9996,17.121299999999998,109.289,31.1017C113.85,38.7948,116.842,46.2017,118.179,53.117C119.459,59.7421,119.242,65.979,117.531,71.6554C115.706,77.7121,112.637,84.5307,109.322,89.8944C104.828,97.1674,100.0955,101.6871,95.2578,103.3314C94.992,103.4215,94.7209,103.4653,94.4551,103.4653L94.4538,103.4653Z" fill="#B27534" fill-opacity="1" style="mix-blend-mode:passthrough"/></g><g><path d="M52.979005625,49.35258219375C50.237754625,49.58313509375,49.429721625,55.03693609375,51.722215625,56.42423609375C54.191055625,57.91886609375,55.491275625,56.30896609375,55.833435625,54.98658609375C56.175595625,53.664206093749996,57.044165625,49.01072309375,52.977685625,49.35125579375L52.979005625,49.35258219375Z" fill="#B27534" fill-opacity="1" style="mix-blend-mode:passthrough"/></g><g><path d="M56.462828625,19.605794375C57.239275625,20.733394375,59.285675625,19.744924375,59.789705624999996,18.400024375C60.293735625,17.055120375,58.807965625,16.799390375,58.159165625,16.978269975C57.510365625,17.157149375,55.311314625,17.932284375000002,56.462828625,19.605794375Z" fill="#B27534" fill-opacity="1" style="mix-blend-mode:passthrough"/></g><g><path d="M23.9919695,33.575644125C23.1102425,34.622418125,24.5907555,36.356868125,26.0107325,36.498648125C27.4307025,36.640428125,27.2925225,35.129898125,26.9529925,34.545558125C26.6134625,33.961225125,25.3000825,32.022715125,23.9919695,33.576969125L23.9919695,33.575644125Z" fill="#B27534" fill-opacity="1" style="mix-blend-mode:passthrough"/></g><g><path d="M15.849047525,51.846158828125C15.663489625,53.205628828125,17.836220625,53.868148828125,19.110120625,53.220208828125C20.384020624999998,52.572268828125,19.461500625,51.373119828125,18.862710625,51.063063828125C18.263930625,50.753008828125,16.122777625,49.829465828125,15.847731195,51.846158828125L15.849047525,51.846158828125Z" fill="#B27534" fill-opacity="1" style="mix-blend-mode:passthrough"/></g><g><path d="M87.711208,37.24986C88.681105,38.21316,90.51036500000001,36.85898,90.757775,35.44385C91.006505,34.028724,89.498355,34.0539,88.894305,34.350706C88.290255,34.647512,86.271499,35.82016,87.709899,37.24986L87.711208,37.24986Z" fill="#B27534" fill-opacity="1" style="mix-blend-mode:passthrough"/></g><g><path d="M102.677076875,57.520016931875C101.317629875,57.414016421875,100.788598875,59.636077421875,101.505818875,60.878957421875C102.223046875,62.121827421875,103.358766875,61.124087421875004,103.629866875,60.503977421875C103.902276875,59.883867421875,104.693206875,57.677699421875,102.677076875,57.520016931875Z" fill="#B27534" fill-opacity="1" style="mix-blend-mode:passthrough"/></g><g><path d="M62.566148125,49.518370821875C65.307398125,49.748923421875,65.749588125,54.871472421875,63.483408125,56.661582421874996C61.841028125,57.958782421875,59.714353125,56.546302421875,59.372193125,55.223932421875C59.030033125,53.901552421875,58.500994125,49.176516421875,62.567468125,49.518370821875L62.566148125,49.518370821875Z" fill="#B27534" fill-opacity="1" style="mix-blend-mode:passthrough"/></g></g></g></g></svg>