<svg xmlns="http://www.w3.org/2000/svg" viewBox="0 0 193.13 159.04"><defs><style>.cls-1{fill:#e5dbc7;stroke:#fff;stroke-miterlimit:10;}.cls-2{fill:#6b7a66;}.cls-3,.cls-8,.cls-9{fill:#24281b;}.cls-4{fill:#445c43;}.cls-5{fill:#a9b298;}.cls-6{fill:#c12a31;}.cls-7{fill:#751d22;}.cls-8{font-size:30.78px;}.cls-8,.cls-9{font-family:CinzelDecorative-Regular, Cinzel Decorative;}.cls-9{font-size:10.61px;}.cls-10{font-size:11.67px;fill:#5e4d37;font-family:AguafinaScript-Regular, Aguafina Script;}.cls-11,.cls-12,.cls-13,.cls-14,.cls-15{fill:#992419;}.cls-12,.cls-13,.cls-14{font-size:9.57px;}.cls-12,.cls-15{font-family:CourierNewPS-BoldMT, Courier New;font-weight:700;}.cls-13{font-family:AdobeSongStd-Light-GBpc-EUC-H, Adobe Song Std;}.cls-14{font-family:TimesNewRomanPSMT, Times New Roman;}.cls-15{font-size:10.4px;}</style></defs><g id="图层_2" data-name="图层 2"><g id="TEXTS"><path class="cls-1" d="M139.91,119.7a2.55,2.55,0,1,1,0-5.09,3.42,3.42,0,0,1,.46,0v-4.06a3.42,3.42,0,0,1-.46,0,2.55,2.55,0,1,1,0-5.09,3.42,3.42,0,0,1,.46,0v-4.06a3.42,3.42,0,0,1-.46,0,2.55,2.55,0,1,1,0-5.09,2.32,2.32,0,0,1,.46,0V92.44a2.31,2.31,0,0,1-.46,0,2.55,2.55,0,1,1,0-5.09,2.32,2.32,0,0,1,.46,0V83.37a2.31,2.31,0,0,1-.46,0,2.55,2.55,0,1,1,0-5.1,2.31,2.31,0,0,1,.46.05V74.3a2.31,2.31,0,0,1-.46,0,2.55,2.55,0,1,1,0-5.1,2.31,2.31,0,0,1,.46,0V65.23a2.31,2.31,0,0,1-.46,0,2.55,2.55,0,1,1,0-5.1,2.31,2.31,0,0,1,.46,0V56.16a2.31,2.31,0,0,1-.46.05,2.55,2.55,0,1,1,0-5.1,2.31,2.31,0,0,1,.46,0V47.09a2.31,2.31,0,0,1-.46,0,2.55,2.55,0,0,1,0-5.1,2.31,2.31,0,0,1,.46.05V38a2.31,2.31,0,0,1-.46,0,2.55,2.55,0,0,1,0-5.1,2.31,2.31,0,0,1,.46.05V29a2.31,2.31,0,0,1-.46.05,2.55,2.55,0,1,1,0-5.1,2.31,2.31,0,0,1,.46.05V19.88a2.31,2.31,0,0,1-.46.05,2.55,2.55,0,1,1,0-5.1,2.31,2.31,0,0,1,.46.05V10.81a2.31,2.31,0,0,1-.46,0,2.55,2.55,0,1,1,0-5.1,2.31,2.31,0,0,1,.46,0V.5h-3.66a2.54,2.54,0,0,1,.15.83,2.55,2.55,0,1,1-5.09,0,2.31,2.31,0,0,1,.15-.83h-4.28a2.54,2.54,0,0,1,.15.83,2.55,2.55,0,0,1-5.1,0,2.31,2.31,0,0,1,.16-.83h-4.28a2.54,2.54,0,0,1,.15.83,2.55,2.55,0,1,1-5.1,0,2.31,2.31,0,0,1,.16-.83H109.5a2.54,2.54,0,0,1,.15.83,2.55,2.55,0,0,1-5.1,0,2.31,2.31,0,0,1,.16-.83h-4.28a2.54,2.54,0,0,1,.15.83,2.55,2.55,0,0,1-5.1,0A2.54,2.54,0,0,1,95.63.5H91.36a2.54,2.54,0,0,1,.15.83,2.55,2.55,0,0,1-5.1,0A2.54,2.54,0,0,1,86.56.5H82.29a2.54,2.54,0,0,1,.15.83,2.55,2.55,0,1,1-5.1,0A2.54,2.54,0,0,1,77.49.5H73.22a2.54,2.54,0,0,1,.15.83,2.55,2.55,0,0,1-5.1,0A2.54,2.54,0,0,1,68.42.5H64.15a2.54,2.54,0,0,1,.15.83,2.55,2.55,0,0,1-5.1,0A2.54,2.54,0,0,1,59.35.5H55.08a2.54,2.54,0,0,1,.15.83,2.55,2.55,0,1,1-5.1,0A2.54,2.54,0,0,1,50.28.5H46a2.31,2.31,0,0,1,.16.83,2.55,2.55,0,0,1-5.1,0A2.54,2.54,0,0,1,41.21.5H36.37V5.8a3.27,3.27,0,0,1,.44,0,2.55,2.55,0,0,1,0,5.1,2.2,2.2,0,0,1-.44,0v4.07a2.2,2.2,0,0,1,.44-.05,2.55,2.55,0,0,1,0,5.1,2.2,2.2,0,0,1-.44-.05V24a2.2,2.2,0,0,1,.44-.05,2.55,2.55,0,0,1,0,5.1,2.2,2.2,0,0,1-.44-.05V33a2.2,2.2,0,0,1,.44-.05,2.55,2.55,0,0,1,0,5.1,2.2,2.2,0,0,1-.44,0v4.07a2.2,2.2,0,0,1,.44-.05,2.55,2.55,0,0,1,0,5.1,2.2,2.2,0,0,1-.44,0v4.07a2.2,2.2,0,0,1,.44,0,2.55,2.55,0,1,1,0,5.1,3.27,3.27,0,0,1-.44,0v4.06a2.2,2.2,0,0,1,.44,0,2.55,2.55,0,1,1,0,5.1,3.27,3.27,0,0,1-.44,0V69.3a2.2,2.2,0,0,1,.44,0,2.55,2.55,0,1,1,0,5.1,3.27,3.27,0,0,1-.44,0v4.06a2.2,2.2,0,0,1,.44-.05,2.55,2.55,0,0,1,0,5.1,3.27,3.27,0,0,1-.44,0v4.06a2.18,2.18,0,0,1,.44,0,2.55,2.55,0,1,1,0,5.09,3.27,3.27,0,0,1-.44,0v4.06a3.27,3.27,0,0,1,.44,0,2.55,2.55,0,1,1,0,5.09,3.27,3.27,0,0,1-.44,0v4.06a3.27,3.27,0,0,1,.44,0,2.55,2.55,0,1,1,0,5.09,3.27,3.27,0,0,1-.44,0v4.06a3.27,3.27,0,0,1,.44,0,2.55,2.55,0,1,1,0,5.09,3.27,3.27,0,0,1-.44,0v5h4.78a2.51,2.51,0,0,1-.09-.62,2.55,2.55,0,1,1,5.1,0,2.51,2.51,0,0,1-.09.62h4.15a2.51,2.51,0,0,1-.09-.62,2.55,2.55,0,1,1,5.1,0,2.51,2.51,0,0,1-.09.62h4.15a2.51,2.51,0,0,1-.09-.62,2.55,2.55,0,1,1,5.1,0,2.51,2.51,0,0,1-.09.62h4.15a2.51,2.51,0,0,1-.09-.62,2.55,2.55,0,1,1,5.1,0,2.51,2.51,0,0,1-.09.62h4.15a2.51,2.51,0,0,1-.09-.62,2.55,2.55,0,1,1,5.1,0,2.51,2.51,0,0,1-.09.62H86.5a2.51,2.51,0,0,1-.09-.62,2.55,2.55,0,1,1,5.1,0,2.51,2.51,0,0,1-.09.62h4.15a2.51,2.51,0,0,1-.09-.62,2.55,2.55,0,1,1,5.1,0,2.51,2.51,0,0,1-.09.62h4.15a2.51,2.51,0,0,1-.09-.62,2.55,2.55,0,1,1,5.1,0,2.51,2.51,0,0,1-.09.62h4.15a2.51,2.51,0,0,1-.09-.62,2.55,2.55,0,1,1,5.1,0,2.11,2.11,0,0,1-.09.62h4.15a2.51,2.51,0,0,1-.09-.62,2.55,2.55,0,1,1,5.1,0,2.11,2.11,0,0,1-.09.62h4.15a2.51,2.51,0,0,1-.08-.62,2.55,2.55,0,1,1,5.09,0,2.51,2.51,0,0,1-.08.62h3.59v-5A3.42,3.42,0,0,1,139.91,119.7Z"/><path class="cls-2" d="M80.87,79.65A3.25,3.25,0,0,0,80,77a12.07,12.07,0,0,0-2.33-1.8,1,1,0,0,1-.38-.37,1.14,1.14,0,0,1,0-.66,7.11,7.11,0,0,0-4.91-7.57,6.27,6.27,0,0,0,.74-6.06A8.57,8.57,0,0,0,68.67,56a12.05,12.05,0,0,0,1.76-7,4.28,4.28,0,0,0-.77-2.47,16.78,16.78,0,0,0,10.39,5,4.76,4.76,0,0,0-.45,3.55,9.77,9.77,0,0,0,1.62,3.28,8,8,0,0,0,4.39,3.5,10.52,10.52,0,0,0,.15,9.33,6.16,6.16,0,0,0-2.85,7.3A3.91,3.91,0,0,1,80.87,79.65Z"/><path class="cls-3" d="M80.87,79.65a2.88,2.88,0,0,0-.45-2A5.28,5.28,0,0,0,79,76.16c-.56-.44-1.18-.7-1.76-1.22-.27-.38-.09-.79-.1-1.11a5.07,5.07,0,0,0,0-1,7,7,0,0,0-4.86-6l-.37-.1.23-.31a6,6,0,0,0,.64-5.78,8.2,8.2,0,0,0-4.22-4.24l-.35-.17.2-.34A11.83,11.83,0,0,0,70,51.34,12.15,12.15,0,0,0,70,48.93a3.69,3.69,0,0,0-.69-2.11l.59-.51a16.64,16.64,0,0,0,10.14,4.87l.59.06-.31.5a4.22,4.22,0,0,0-.48,2.91,7.92,7.92,0,0,0,1.18,2.88A13.3,13.3,0,0,0,83,60a6,6,0,0,0,2.64,1.57l.36.09-.16.33a10.31,10.31,0,0,0,.06,9.11l.09.18-.18.09A6,6,0,0,0,83,78.5v0l0,0c-.32.24-.62.5-1,.71A2.73,2.73,0,0,1,80.87,79.65Zm0,0A2.66,2.66,0,0,0,82,79.22a11,11,0,0,0,.92-.74v0A6.27,6.27,0,0,1,85.67,71l-.08.27a10.78,10.78,0,0,1-.25-9.56l.2.42a6.61,6.61,0,0,1-3-1.67,13.44,13.44,0,0,1-2.1-2.61,8.56,8.56,0,0,1-1.31-3.12,5.06,5.06,0,0,1,.56-3.42l.28.56a17,17,0,0,1-10.64-5.07l.59-.51a4.59,4.59,0,0,1,.84,2.54,12.27,12.27,0,0,1-.1,2.57A12.5,12.5,0,0,1,69,56.23l-.15-.51a8.87,8.87,0,0,1,4.53,4.65,6.55,6.55,0,0,1-.84,6.34l-.13-.41a7.33,7.33,0,0,1,5,6.48,6.5,6.5,0,0,1,0,1.08c0,.36-.16.71,0,.94.45.43,1.13.8,1.66,1.24a5.49,5.49,0,0,1,1.43,1.57A2.93,2.93,0,0,1,80.87,79.65Z"/><path class="cls-3" d="M72.12,50.05a132.61,132.61,0,0,1,6.43,14,61.67,61.67,0,0,1,2.18,7.41,38,38,0,0,1,1,7.65,53,53,0,0,0-3.45-15C76.54,59.35,74.26,54.73,72.12,50.05Z"/><path class="cls-3" d="M71.72,55.41A11.16,11.16,0,0,1,77.13,61,20.28,20.28,0,0,0,74.71,58,19.21,19.21,0,0,0,71.72,55.41Z"/><path class="cls-3" d="M75.89,65a10.22,10.22,0,0,1,1.32.85,11.79,11.79,0,0,1,1.18,1,10.62,10.62,0,0,1,1,1.21A3,3,0,0,1,80,69.59a3.67,3.67,0,0,0-.77-1.32c-.33-.39-.67-.78-1-1.14C77.46,66.38,76.68,65.71,75.89,65Z"/><path class="cls-3" d="M77.81,53.47a9.47,9.47,0,0,0-1.22,2.39,7.91,7.91,0,0,0-.35,1.29,9.81,9.81,0,0,0-.16,1.34A4.89,4.89,0,0,1,76,57.11a6.25,6.25,0,0,1,.29-1.35A5.47,5.47,0,0,1,77.81,53.47Z"/><path class="cls-3" d="M82.83,63.4A10.55,10.55,0,0,0,81,65.33a7.32,7.32,0,0,0-.68,1.11,10.18,10.18,0,0,0-.55,1.21,4.94,4.94,0,0,1,.33-1.31,6,6,0,0,1,.66-1.19A5.35,5.35,0,0,1,82.83,63.4Z"/><path class="cls-3" d="M78.76,73.35a4.38,4.38,0,0,1,2.75,2.18c-.46-.39-.87-.79-1.34-1.14S79.24,73.71,78.76,73.35Z"/><path class="cls-3" d="M83.54,70.22A7,7,0,0,0,82,71.73a6.43,6.43,0,0,0-.56.9,8.24,8.24,0,0,0-.42,1,3.46,3.46,0,0,1,.21-1.1,3.81,3.81,0,0,1,1.31-1.79A3.46,3.46,0,0,1,83.54,70.22Z"/><path class="cls-3" d="M84.51,62.63a14.2,14.2,0,0,0-.34,6.51A9.2,9.2,0,0,1,84.51,62.63Z"/><path class="cls-3" d="M78.66,53.4c0,.8,0,1.55.06,2.35A3,3,0,0,1,78.66,53.4Z"/><path class="cls-3" d="M84.75,71.07c-.6.51-1.13,1-1.68,1.57A2.89,2.89,0,0,1,84.75,71.07Z"/><path class="cls-3" d="M78.85,56.62a13.25,13.25,0,0,0,1.69,2.83,11.55,11.55,0,0,0,1.09,1.23,3.46,3.46,0,0,0,1.37.89,2.94,2.94,0,0,1-1.48-.77,9.49,9.49,0,0,1-1.15-1.22A8.77,8.77,0,0,1,78.85,56.62Z"/><path class="cls-3" d="M79.13,67.28a8.19,8.19,0,0,0-2.72-2.89A6.24,6.24,0,0,1,79.13,67.28Z"/><path class="cls-3" d="M79,66a8.84,8.84,0,0,0-2.84-2.53A6.45,6.45,0,0,1,79,66Z"/><path class="cls-3" d="M78.41,64.46a8.51,8.51,0,0,0-2.85-2.28A6.08,6.08,0,0,1,78.41,64.46Z"/><path class="cls-3" d="M77.51,62.44a5.17,5.17,0,0,0-2.34-1.76A3.86,3.86,0,0,1,77.51,62.44Z"/><path class="cls-3" d="M79.55,66.94a4,4,0,0,1,1.53-3A5.12,5.12,0,0,0,79.55,66.94Z"/><path class="cls-3" d="M79.18,66a3.5,3.5,0,0,1,1.12-2.54A4.7,4.7,0,0,0,79.18,66Z"/><path class="cls-3" d="M80.82,71.5a2.75,2.75,0,0,1,1.45-2A3.71,3.71,0,0,0,80.82,71.5Z"/><path class="cls-3" d="M80.6,70.76a.7.7,0,0,1,.12-.62,6.22,6.22,0,0,1,.32-.56,2,2,0,0,1,1-.81,2.31,2.31,0,0,0-.92.86c-.12.17-.23.35-.34.54A.79.79,0,0,0,80.6,70.76Z"/><path class="cls-3" d="M77.09,66.93a8.12,8.12,0,0,1,2.18,2.45A15,15,0,0,0,77.09,66.93Z"/><path class="cls-3" d="M75.28,56.81a10.28,10.28,0,0,0-2.68-2.14A6.6,6.6,0,0,1,75.28,56.81Z"/><path class="cls-3" d="M74.46,55.32a5.57,5.57,0,0,0-2.17-1.4A3.65,3.65,0,0,1,74.46,55.32Z"/><path class="cls-4" d="M96.74,53.32a4.12,4.12,0,0,1,3.56,4.2c1.36-.85,1.4-3.22,2.94-3.63a7.78,7.78,0,0,1,3.94-6.67,10.84,10.84,0,0,1,2.14-8.58,4.32,4.32,0,0,1-.62-3.44A19.82,19.82,0,0,1,110,30.36c-1.88-2.07-2.32-5.07-2.37-7.86a8.16,8.16,0,0,1-4.43,4.61,14.62,14.62,0,0,1-1.31,4.16,5.75,5.75,0,0,1-3.2,2.84,1,1,0,0,0-.54.28,1,1,0,0,0-.14.44,27.68,27.68,0,0,1-.87,4.62,8.14,8.14,0,0,1-2.49,3.91A10.92,10.92,0,0,1,96.74,53.32Z"/><path class="cls-3" d="M96.74,53.32a4.17,4.17,0,0,1,3.68,4.21l-.18-.11a4.29,4.29,0,0,0,1.29-1.9,5.76,5.76,0,0,1,.61-1.07,1.94,1.94,0,0,1,1-.76l-.15.2A8,8,0,0,1,107,47l-.14.31A11,11,0,0,1,109,38.42v.45a3.6,3.6,0,0,1-.79-2.21,10.23,10.23,0,0,1,.19-2.23,19.55,19.55,0,0,1,1.21-4.22l.07.41a9,9,0,0,1-2-3.87,18.53,18.53,0,0,1-.48-4.25l.74.13a8.52,8.52,0,0,1-4.65,4.81l.22-.26a13.85,13.85,0,0,1-1.6,4.64,6.58,6.58,0,0,1-1.71,1.86,5.29,5.29,0,0,1-1.12.61c-.2.08-.43.14-.57.19s-.17.07-.22.21a31,31,0,0,1-.93,4.72,8.28,8.28,0,0,1-2.64,4.1l0-.28A11,11,0,0,1,96.74,53.32Zm0,0a10.82,10.82,0,0,0-2.23-9.83l-.14-.16.16-.13a7.88,7.88,0,0,0,2.41-3.94,33.17,33.17,0,0,0,.83-4.72.9.9,0,0,1,.57-.64l.56-.2a4.08,4.08,0,0,0,1-.56,6,6,0,0,0,1.52-1.68A13.17,13.17,0,0,0,102.86,27l0-.19.17-.07a7.78,7.78,0,0,0,4.21-4.42l.7-1.9,0,2a17.84,17.84,0,0,0,.49,4.07,8.19,8.19,0,0,0,1.78,3.54l.17.18-.1.23a19.62,19.62,0,0,0-1.19,4.05,9.76,9.76,0,0,0-.19,2.06,2.89,2.89,0,0,0,.61,1.79l.19.22-.18.23a10.64,10.64,0,0,0-2.13,8.31l0,.21-.18.1a7.48,7.48,0,0,0-3.87,6.41v.16l-.15,0c-.7.17-1.12.89-1.47,1.58a4.61,4.61,0,0,1-1.46,2l-.19.12,0-.23A4.06,4.06,0,0,0,96.74,53.32Z"/><path class="cls-3" d="M100.17,54.7a88.58,88.58,0,0,1,6.44-30.25,109.17,109.17,0,0,0-4.25,14.91A109.82,109.82,0,0,0,100.17,54.7Z"/><path class="cls-3" d="M103.78,32.94c0-1,.09-1.9,0-2.85s-.14-1.89-.25-2.84a9.07,9.07,0,0,1,.56,2.83A9.2,9.2,0,0,1,103.78,32.94Z"/><path class="cls-3" d="M108,30.93a18.18,18.18,0,0,0-3.09,3,17.85,17.85,0,0,0-2.27,3.63,11.08,11.08,0,0,1,2-3.83A11.38,11.38,0,0,1,108,30.93Z"/><path class="cls-3" d="M106.42,38.74a16.47,16.47,0,0,0-2.8,1.79,9.85,9.85,0,0,0-1.19,1.14,13.11,13.11,0,0,0-1,1.31,6.44,6.44,0,0,1,.84-1.46,8.07,8.07,0,0,1,1.18-1.23A8.63,8.63,0,0,1,106.42,38.74Z"/><path class="cls-3" d="M105,45.59a9.65,9.65,0,0,0-2.39,1.11,7.91,7.91,0,0,0-1,.79,10.42,10.42,0,0,0-.94.94,4.91,4.91,0,0,1,.77-1.11,5.85,5.85,0,0,1,1.05-.87A5.21,5.21,0,0,1,105,45.59Z"/><path class="cls-3" d="M101.22,43.77a15.07,15.07,0,0,0-.36-4.5,13.43,13.43,0,0,0-.68-2.15,16.11,16.11,0,0,0-1-2A9.75,9.75,0,0,1,100.39,37a11.3,11.3,0,0,1,.77,2.18A10.52,10.52,0,0,1,101.22,43.77Z"/><path class="cls-3" d="M100.53,49.36a9.65,9.65,0,0,0-1-3.32,8.57,8.57,0,0,0-.91-1.47,10.26,10.26,0,0,0-1.16-1.31,6.48,6.48,0,0,1,1.35,1.16,7.5,7.5,0,0,1,1,1.48,7.21,7.21,0,0,1,.59,1.69A6.19,6.19,0,0,1,100.53,49.36Z"/><path class="cls-3" d="M105.5,47.62a6.37,6.37,0,0,0-2.11,2.53,15.75,15.75,0,0,0-.91,3.21,9.45,9.45,0,0,1,.72-3.3A5.23,5.23,0,0,1,105.5,47.62Z"/><path class="cls-3" d="M106.46,44a19,19,0,0,0-.14,2.39A3,3,0,0,1,106.46,44Z"/><path class="cls-3" d="M97.76,51.17a17.58,17.58,0,0,0-1.93-7.74.1.1,0,0,1,0-.12,10,10,0,0,0,2.38-5.61A9.18,9.18,0,0,1,96,43.45l0-.12A15.29,15.29,0,0,1,97.76,51.17Z"/><path class="cls-3" d="M108.32,29.77a3.26,3.26,0,0,1-1.58-2.57A7.42,7.42,0,0,0,108.32,29.77Z"/><path class="cls-3" d="M102,41.17a4.24,4.24,0,0,1,2.17-2.2A5.73,5.73,0,0,0,102,41.17Z"/><path class="cls-3" d="M102.05,40.2a4.36,4.36,0,0,1,1.87-1.93A7,7,0,0,0,102.05,40.2Z"/><path class="cls-3" d="M102.33,39.09A4.21,4.21,0,0,1,104,37.46,8.17,8.17,0,0,0,102.33,39.09Z"/><path class="cls-3" d="M102.57,38a4,4,0,0,1,1.71-1.42A7.79,7.79,0,0,0,102.57,38Z"/><path class="cls-3" d="M103.42,34.37a6.1,6.1,0,0,1,2.27-2.43A9.21,9.21,0,0,0,103.42,34.37Z"/><path class="cls-3" d="M101.94,34.4a3.48,3.48,0,0,1,.87,2.28A5.34,5.34,0,0,0,101.94,34.4Z"/><path class="cls-3" d="M101.72,35a5.18,5.18,0,0,1,.85,2.4A10.71,10.71,0,0,0,101.72,35Z"/><path class="cls-3" d="M99.44,43.73a6,6,0,0,1,1.45,2.9A9.18,9.18,0,0,0,99.44,43.73Z"/><path class="cls-3" d="M99.81,43.36A5.3,5.3,0,0,1,101,45.54,10.85,10.85,0,0,0,99.81,43.36Z"/><path class="cls-3" d="M101.17,44.8a5.08,5.08,0,0,1,2-2.22A7.75,7.75,0,0,0,101.17,44.8Z"/><path class="cls-3" d="M101,45.82A7.41,7.41,0,0,1,103,43.5,15.77,15.77,0,0,0,101,45.82Z"/><path class="cls-3" d="M101,46.66c0-.24.19-.41.31-.58a5.37,5.37,0,0,1,.44-.51,4.94,4.94,0,0,1,1.07-.81,7.6,7.6,0,0,0-1,.87c-.16.15-.31.31-.46.48S101,46.44,101,46.66Z"/><path class="cls-3" d="M100.66,50a3.3,3.3,0,0,1,1.52-1.67A5.28,5.28,0,0,0,100.66,50Z"/><path class="cls-3" d="M100.44,51.11a4,4,0,0,1,1.62-1.81A6.51,6.51,0,0,0,100.44,51.11Z"/><path class="cls-2" d="M104.49,46.89a2.86,2.86,0,0,0,2.07-1.46,10.55,10.55,0,0,0,1-2.45.9.9,0,0,1,.22-.42,1,1,0,0,1,.56-.19,6.32,6.32,0,0,0,5.2-6.12,5.59,5.59,0,0,0,5.37-.91,7.61,7.61,0,0,0,2.68-4.87,10.85,10.85,0,0,0,6.43-.28,3.8,3.8,0,0,0,1.91-1.29A14.94,14.94,0,0,0,128.28,39a4.26,4.26,0,0,0-3.15.52,8.71,8.71,0,0,0-2.39,2.22,7.12,7.12,0,0,0-1.87,4.63,9.42,9.42,0,0,0-7.93,2.51,5.49,5.49,0,0,0-7-.58A3.48,3.48,0,0,1,104.49,46.89Z"/><path class="cls-3" d="M104.49,46.89a2.57,2.57,0,0,0,1.59-.9,4.73,4.73,0,0,0,.9-1.61c.23-.6.3-1.18.59-1.82.27-.34.67-.28.93-.38a5.54,5.54,0,0,0,.88-.26,6.22,6.22,0,0,0,3.85-5.67v-.38l.36.13a5.27,5.27,0,0,0,5.07-.92,7.32,7.32,0,0,0,2.53-4.66l.06-.39.38.1a10.56,10.56,0,0,0,4.26.21,10.44,10.44,0,0,0,2.06-.55,3.23,3.23,0,0,0,1.61-1.11l.66.41A14.73,14.73,0,0,0,128.64,39l.11.58-.57-.16a3.77,3.77,0,0,0-2.58.33,6.92,6.92,0,0,0-2.14,1.73,11.86,11.86,0,0,0-1.62,2.31,5.37,5.37,0,0,0-.67,2.64v.37l-.36-.06a9.13,9.13,0,0,0-7.74,2.35l-.15.14-.13-.14a5.36,5.36,0,0,0-6.79-.68H106a10.49,10.49,0,0,1-.85-.64A2.36,2.36,0,0,1,104.49,46.89Zm0,0a2.49,2.49,0,0,0,.65.82c.27.22.57.4.87.6H106a5.59,5.59,0,0,1,7.12.47h-.28a9.64,9.64,0,0,1,8.12-2.66l-.35.31a6,6,0,0,1,.68-3A12,12,0,0,1,122.94,41a7.57,7.57,0,0,1,2.35-1.91,4.48,4.48,0,0,1,3.08-.4l-.45.43a15.13,15.13,0,0,1,1.63-10.4l.65.41a4.06,4.06,0,0,1-2,1.38,10.65,10.65,0,0,1-2.22.57,11.1,11.1,0,0,1-4.55-.26l.44-.29a7.86,7.86,0,0,1-2.83,5.07,5.87,5.87,0,0,1-5.66.9l.36-.25a6.55,6.55,0,0,1-4.27,6,5.22,5.22,0,0,1-.94.25c-.31.07-.65,0-.79.25-.25.49-.39,1.16-.64,1.73a4.72,4.72,0,0,1-1,1.62A2.62,2.62,0,0,1,104.49,46.89Z"/><path class="cls-3" d="M127.54,31.89A115.87,115.87,0,0,1,117.2,41a53.77,53.77,0,0,1-5.77,3.75,34.55,34.55,0,0,1-6.29,2.77A47,47,0,0,0,117,40.71C120.72,38,124.08,34.9,127.54,31.89Z"/><path class="cls-3" d="M122.86,32.91a9.48,9.48,0,0,1-1.15,3.34A9.71,9.71,0,0,1,119.44,39a19.32,19.32,0,0,0,2-2.86A17.91,17.91,0,0,0,122.86,32.91Z"/><path class="cls-3" d="M115.71,38.91a7.69,7.69,0,0,1-.37,1.35A8.72,8.72,0,0,1,114,42.71a2.47,2.47,0,0,1-1.11.86,3.14,3.14,0,0,0,.92-1,12.72,12.72,0,0,0,.71-1.18A26,26,0,0,0,115.71,38.91Z"/><path class="cls-3" d="M126.06,37.62a8.67,8.67,0,0,0-2.34-.42,6.76,6.76,0,0,0-1.19,0,10.14,10.14,0,0,0-1.19.19,4.31,4.31,0,0,1,1.15-.43,6.42,6.42,0,0,1,1.24-.1A4.57,4.57,0,0,1,126.06,37.62Z"/><path class="cls-3" d="M118.87,44.43a10.5,10.5,0,0,0-2.11-1,7.14,7.14,0,0,0-1.12-.31c-.38-.07-.77-.13-1.17-.17a4,4,0,0,1,1.2-.06,5.36,5.36,0,0,1,1.19.25A4.85,4.85,0,0,1,118.87,44.43Z"/><path class="cls-3" d="M109.33,43.48a3.42,3.42,0,0,1-.26,1.58,3.38,3.38,0,0,1-.9,1.33c.21-.5.44-1,.62-1.44S109.14,44,109.33,43.48Z"/><path class="cls-3" d="M113.22,46.77a6.51,6.51,0,0,0-1.68-.9,5.56,5.56,0,0,0-.91-.25,7.41,7.41,0,0,0-1-.11,2.75,2.75,0,0,1,1-.12,3.49,3.49,0,0,1,1,.2,3.73,3.73,0,0,1,.88.47A2.9,2.9,0,0,1,113.22,46.77Z"/><path class="cls-3" d="M120,45.67A12.85,12.85,0,0,0,114.31,47,8,8,0,0,1,120,45.67Z"/><path class="cls-3" d="M126.34,38.32c-.69.22-1.31.42-2,.66A2.6,2.6,0,0,1,126.34,38.32Z"/><path class="cls-3" d="M112.81,48c-.6-.37-1.16-.69-1.77-1A2.44,2.44,0,0,1,112.81,48Z"/><path class="cls-3" d="M123.64,39.3a12.39,12.39,0,0,0-2,2.18,9.87,9.87,0,0,0-.77,1.24,3.22,3.22,0,0,0-.42,1.39,2.73,2.73,0,0,1,.27-1.46,8.79,8.79,0,0,1,.75-1.3A7.92,7.92,0,0,1,123.64,39.3Z"/><path class="cls-3" d="M114.62,42.26a7.4,7.4,0,0,0,1.76-3.06A5.41,5.41,0,0,1,114.62,42.26Z"/><path class="cls-3" d="M115.69,41.81a8.17,8.17,0,0,0,1.44-3.07A5.84,5.84,0,0,1,115.69,41.81Z"/><path class="cls-3" d="M116.84,40.92a7.78,7.78,0,0,0,1.22-3A5.36,5.36,0,0,1,116.84,40.92Z"/><path class="cls-3" d="M118.33,39.64a4.79,4.79,0,0,0,.91-2.44A3.38,3.38,0,0,1,118.33,39.64Z"/><path class="cls-3" d="M115,42.53a3.55,3.55,0,0,1,2.93.55A4.54,4.54,0,0,0,115,42.53Z"/><path class="cls-3" d="M115.72,42a3,3,0,0,1,2.45.3A4.29,4.29,0,0,0,115.72,42Z"/><path class="cls-3" d="M111.44,44.77a2.42,2.42,0,0,1,2.11.73A3.38,3.38,0,0,0,111.44,44.77Z"/><path class="cls-3" d="M112,44.4a.61.61,0,0,1,.56-.06l.56.13a1.75,1.75,0,0,1,.93.64,2,2,0,0,0-1-.56l-.55-.16A.67.67,0,0,0,112,44.4Z"/><path class="cls-3" d="M114.39,40.42a7,7,0,0,1-1.54,2.49A13.93,13.93,0,0,0,114.39,40.42Z"/><path class="cls-3" d="M122.57,36.3a9,9,0,0,0,1.14-2.83A5.64,5.64,0,0,1,122.57,36.3Z"/><path class="cls-3" d="M123.64,35.23a5.18,5.18,0,0,0,.64-2.21A3.29,3.29,0,0,1,123.64,35.23Z"/><path class="cls-5" d="M88.71,72.59a3.38,3.38,0,0,0,2.9.58A12.29,12.29,0,0,0,94.45,72a1.15,1.15,0,0,1,.54-.15,1.21,1.21,0,0,1,.61.32,7.38,7.38,0,0,0,9.37-.5A6.5,6.5,0,0,0,110,75.5a8.88,8.88,0,0,0,6.29-1.63,12.59,12.59,0,0,0,5.39,5.23,4.47,4.47,0,0,0,2.63.58,17.51,17.51,0,0,0-9.88,6.78,5,5,0,0,0-3-2.25A10.27,10.27,0,0,0,107.7,84a8.42,8.42,0,0,0-5.44,2.14,11,11,0,0,0-8.49-4.71A6.4,6.4,0,0,0,88.68,75,4,4,0,0,1,88.71,72.59Z"/><path class="cls-3" d="M88.71,72.59a3,3,0,0,0,2,.64,5.44,5.44,0,0,0,2.09-.54c.34-.15.66-.31,1-.48a4.86,4.86,0,0,1,1-.46c.48,0,.75.33,1,.48a5.71,5.71,0,0,0,.93.53,7.29,7.29,0,0,0,7.94-1.26l.28-.27.15.36a6.22,6.22,0,0,0,4.88,3.59,8.59,8.59,0,0,0,6-1.6l.33-.22.19.34A12.23,12.23,0,0,0,122,78.82a3.92,3.92,0,0,0,2.27.48l.15.76a17.29,17.29,0,0,0-9.68,6.62l-.34.47-.28-.51a4.46,4.46,0,0,0-2.38-2,8.22,8.22,0,0,0-3.21-.43,14.44,14.44,0,0,0-3.28.49,6.32,6.32,0,0,0-2.79,1.56l-.26.27-.21-.3a10.72,10.72,0,0,0-8.25-4.69h-.2v-.19a6.29,6.29,0,0,0-4.9-6.32h0v0c0-.41-.13-.82-.14-1.23A2.77,2.77,0,0,1,88.71,72.59Zm0,0a2.79,2.79,0,0,0-.18,1.21c0,.4.12.81.19,1.21l0,0A6.52,6.52,0,0,1,94,81.39l-.19-.2a11.21,11.21,0,0,1,8.73,4.74l-.46,0a6.86,6.86,0,0,1,3-1.79,14.5,14.5,0,0,1,3.44-.54A8.87,8.87,0,0,1,112,84a5.23,5.23,0,0,1,2.78,2.28l-.62,0a18.16,18.16,0,0,1,4.42-4.37,16.27,16.27,0,0,1,5.67-2.57l.15.76a4.64,4.64,0,0,1-2.72-.57A12.84,12.84,0,0,1,116,74l.52.12A9.11,9.11,0,0,1,110,75.82a6.8,6.8,0,0,1-5.28-4l.43.09A7.6,7.6,0,0,1,96.71,73a6.35,6.35,0,0,1-1-.59c-.31-.2-.56-.51-.86-.47-.63.18-1.31.6-2,.85a5.34,5.34,0,0,1-2.15.47A3,3,0,0,1,88.71,72.59Z"/><path class="cls-3" d="M119.93,80.1a138.22,138.22,0,0,1-16-1.52,62.94,62.94,0,0,1-7.81-1.87,41.15,41.15,0,0,1-7.41-3.1A54.57,54.57,0,0,0,104,78.28C109.26,79.25,114.61,79.6,119.93,80.1Z"/><path class="cls-3" d="M115.31,77a11.39,11.39,0,0,1-3.76,1.68,11.63,11.63,0,0,1-4.11.27,21,21,0,0,0,4-.57A19.7,19.7,0,0,0,115.31,77Z"/><path class="cls-3" d="M104.49,75.7a9.15,9.15,0,0,1-1.46.75,13.58,13.58,0,0,1-1.56.52,12.61,12.61,0,0,1-1.61.28A3,3,0,0,1,98.23,77a3.92,3.92,0,0,0,1.6,0c.52-.1,1-.2,1.57-.35A26.91,26.91,0,0,0,104.49,75.7Z"/><path class="cls-3" d="M113.89,83.44a9.57,9.57,0,0,0-1.51-2.34,7.56,7.56,0,0,0-1-1,10.76,10.76,0,0,0-1.13-.85,5.12,5.12,0,0,1,1.27.66,6.63,6.63,0,0,1,1.08,1A5.61,5.61,0,0,1,113.89,83.44Z"/><path class="cls-3" d="M102.33,82.81a10.47,10.47,0,0,0-.79-2.62,9.27,9.27,0,0,0-.65-1.2,12.2,12.2,0,0,0-.81-1.12,5.51,5.51,0,0,1,1,1,6.18,6.18,0,0,1,.73,1.21A5.64,5.64,0,0,1,102.33,82.81Z"/><path class="cls-3" d="M95.49,74a4.66,4.66,0,0,1-1.56,1,4.47,4.47,0,0,1-1.84.32c.59-.21,1.17-.37,1.72-.61S94.92,74.22,95.49,74Z"/><path class="cls-3" d="M95.82,79.9a7.17,7.17,0,0,0-.56-2.16,6.09,6.09,0,0,0-.53-1,8.28,8.28,0,0,0-.69-.9,3.55,3.55,0,0,1,.88.76,4,4,0,0,1,.93,2.12A3.41,3.41,0,0,1,95.82,79.9Z"/><path class="cls-3" d="M102.15,84.72A14.45,14.45,0,0,0,96.46,81,9.61,9.61,0,0,1,102.15,84.72Z"/><path class="cls-3" d="M113.51,84.25c-.71-.43-1.39-.8-2.14-1.17A3.22,3.22,0,0,1,113.51,84.25Z"/><path class="cls-3" d="M94.43,80.55c-.15-.81-.32-1.54-.54-2.33A3.11,3.11,0,0,1,94.43,80.55Z"/><path class="cls-3" d="M110.51,82.74a14,14,0,0,0-3.42.05,11.93,11.93,0,0,0-1.68.35,3.62,3.62,0,0,0-1.51.77,3.09,3.09,0,0,1,1.46-.93,10.78,10.78,0,0,1,1.7-.4A9.1,9.1,0,0,1,110.51,82.74Z"/><path class="cls-3" d="M100.76,77.46a8.4,8.4,0,0,0,4-1A6.53,6.53,0,0,1,100.76,77.46Z"/><path class="cls-3" d="M102,78a9.3,9.3,0,0,0,3.76-1.25A6.77,6.77,0,0,1,102,78Z"/><path class="cls-3" d="M103.68,78.27a8.83,8.83,0,0,0,3.54-1.38A6.45,6.45,0,0,1,103.68,78.27Z"/><path class="cls-3" d="M106,78.51a5.48,5.48,0,0,0,2.8-1.19A4,4,0,0,1,106,78.51Z"/><path class="cls-3" d="M100.85,78a4.19,4.19,0,0,1,1.89,2.92A5.25,5.25,0,0,0,100.85,78Z"/><path class="cls-3" d="M101.89,78.17a3.67,3.67,0,0,1,1.71,2.32A4.88,4.88,0,0,0,101.89,78.17Z"/><path class="cls-3" d="M96.08,76.78a2.88,2.88,0,0,1,1.08,2.37A3.8,3.8,0,0,0,96.08,76.78Z"/><path class="cls-3" d="M96.87,77c.24,0,.38.25.49.43s.23.38.34.58a2.07,2.07,0,0,1,.21,1.31A2.35,2.35,0,0,0,97.62,78a6.63,6.63,0,0,0-.31-.59C97.2,77.25,97.09,77,96.87,77Z"/><path class="cls-3" d="M102.15,75.8a8.43,8.43,0,0,1-3.35.68A15.33,15.33,0,0,0,102.15,75.8Z"/><path class="cls-3" d="M112.2,79.43a10.15,10.15,0,0,0,3.32-1.31A6.88,6.88,0,0,1,112.2,79.43Z"/><path class="cls-3" d="M114,79.47a5.77,5.77,0,0,0,2.39-1.24A3.87,3.87,0,0,1,114,79.47Z"/><path class="cls-2" d="M100.22,47.37a4.73,4.73,0,0,1,6.17,1.44c.67-1.72-.92-3.94.23-5.38a8.93,8.93,0,0,1-.92-8.85,12.48,12.48,0,0,1-3.91-9.4,5,5,0,0,1-2.93-2.75,22.11,22.11,0,0,1-2.1-5.37c-3.16-.63-5.62-3.09-7.58-5.64a9.35,9.35,0,0,1-.93,7.29,16.51,16.51,0,0,1,1.63,4.75,6.55,6.55,0,0,1-1,4.81,1.2,1.2,0,0,0-.3.62,1,1,0,0,0,.17.52,30.64,30.64,0,0,1,2.35,4.86,9.19,9.19,0,0,1,.38,5.31A12.58,12.58,0,0,1,100.22,47.37Z"/><path class="cls-3" d="M100.22,47.37a4.79,4.79,0,0,1,6.27,1.38l-.2,0a5,5,0,0,0-.11-2.65,7.25,7.25,0,0,1-.17-1.41,2.25,2.25,0,0,1,.45-1.4v.24a9.13,9.13,0,0,1-1-9.09l.06.33a12.66,12.66,0,0,1-4.06-9.62l.28.36A4.12,4.12,0,0,1,99.5,24a12,12,0,0,1-1.35-2.17,22.73,22.73,0,0,1-1.76-4.72l.29.28a10.25,10.25,0,0,1-4.45-2.2,21.46,21.46,0,0,1-3.36-3.58l.67-.34a9.71,9.71,0,0,1-1,7.58v-.33a15.73,15.73,0,0,1,1.71,5.36A7.36,7.36,0,0,1,90,26.79a5.45,5.45,0,0,1-.61,1.32c-.13.21-.3.42-.4.57s-.11.22,0,.38a36,36,0,0,1,2.38,5,9.66,9.66,0,0,1,.38,5.58l-.15-.25A12.65,12.65,0,0,1,100.22,47.37Zm0,0a12.49,12.49,0,0,0-8.79-7.59l-.2,0,0-.21a9.09,9.09,0,0,0-.47-5.3,36.64,36.64,0,0,0-2.46-4.94,1,1,0,0,1,.08-.94c.16-.23.28-.38.39-.57a5.06,5.06,0,0,0,.52-1.19A6.74,6.74,0,0,0,89.59,24a15,15,0,0,0-1.67-5.11l-.08-.18.1-.16a9,9,0,0,0,.87-7l-.57-1.94,1.24,1.6a20.81,20.81,0,0,0,3.25,3.44,9.48,9.48,0,0,0,4.1,2.06l.24.05.06.23a22.07,22.07,0,0,0,1.68,4.58,11.45,11.45,0,0,0,1.25,2.05,3.36,3.36,0,0,0,1.81,1.25l.29.07v.29a12.28,12.28,0,0,0,3.75,9.17l.15.14-.09.19a8.69,8.69,0,0,0,.82,8.61l.1.13-.1.12a3.09,3.09,0,0,0-.28,2.5,5.28,5.28,0,0,1,0,2.79l-.08.21-.12-.19A4.69,4.69,0,0,0,100.22,47.37Z"/><path class="cls-3" d="M104.34,46.3a106.18,106.18,0,0,1-8.79-15.55,105.82,105.82,0,0,1-6-16.82,123.75,123.75,0,0,0,6.26,16.7A125.56,125.56,0,0,0,104.34,46.3Z"/><path class="cls-3" d="M92.77,23.72A32.45,32.45,0,0,0,90.87,21c-.67-.86-1.43-1.64-2.19-2.44a11.07,11.07,0,0,1,4.09,5.13Z"/><path class="cls-3" d="M95.29,19a19.35,19.35,0,0,0-.42,9.79,12.92,12.92,0,0,1-.72-4.94A13.24,13.24,0,0,1,95.29,19Z"/><path class="cls-3" d="M99.18,27.27a17.37,17.37,0,0,0-1.38,3.56,10.75,10.75,0,0,0-.32,1.87,15.19,15.19,0,0,0,0,1.91,8.18,8.18,0,0,1-.2-1.92,9.82,9.82,0,0,1,.25-1.94A10.12,10.12,0,0,1,99.18,27.27Z"/><path class="cls-3" d="M102.54,34.58a10.12,10.12,0,0,0-1.46,2.65,8.27,8.27,0,0,0-.42,1.45,12.63,12.63,0,0,0-.21,1.52,5.37,5.37,0,0,1,0-1.55,6.6,6.6,0,0,1,.36-1.52A6.21,6.21,0,0,1,102.54,34.58Z"/><path class="cls-3" d="M97.83,35.48a17,17,0,0,0-3.41-3.94A15.92,15.92,0,0,0,92.31,30,18.84,18.84,0,0,0,90,28.84a11.72,11.72,0,0,1,2.45,1,14.09,14.09,0,0,1,2.19,1.49A12.23,12.23,0,0,1,97.83,35.48Z"/><path class="cls-3" d="M101,41.11a10.78,10.78,0,0,0-3.16-2.43A10.17,10.17,0,0,0,96,38a10.9,10.9,0,0,0-2-.39,7.33,7.33,0,0,1,2,.16,8.08,8.08,0,0,1,3.62,1.84A6.79,6.79,0,0,1,101,41.11Z"/><path class="cls-3" d="M104.41,36.1a7.37,7.37,0,0,0-.23,3.78,17.05,17.05,0,0,0,1.38,3.59A11.32,11.32,0,0,1,104,39.93,6.14,6.14,0,0,1,104.41,36.1Z"/><path class="cls-3" d="M102.83,32.1a15.29,15.29,0,0,0,1.51,2.31A3.62,3.62,0,0,1,102.83,32.1Z"/><path class="cls-3" d="M99.7,44.68a21.21,21.21,0,0,0-3.21-3.35,20.23,20.23,0,0,0-3.88-2.5.08.08,0,0,1,0-.09,11.33,11.33,0,0,0-1.67-6.82,10.67,10.67,0,0,1,1.86,6.83l0-.09a17.34,17.34,0,0,1,3.89,2.56A17,17,0,0,1,99.7,44.68Z"/><path class="cls-3" d="M94.79,17.67a3.9,3.9,0,0,1-3.22-1.29A7.87,7.87,0,0,0,94.79,17.67Z"/><path class="cls-3" d="M96.75,32.55A4.9,4.9,0,0,1,97.24,29,6.43,6.43,0,0,0,96.75,32.55Z"/><path class="cls-3" d="M96.14,31.61a5.14,5.14,0,0,1,.41-3.07A7.8,7.8,0,0,0,96.14,31.61Z"/><path class="cls-3" d="M95.63,30.39a5.12,5.12,0,0,1,.46-2.67A9,9,0,0,0,95.63,30.39Z"/><path class="cls-3" d="M95.13,29.24a4.7,4.7,0,0,1,.61-2.49A8.26,8.26,0,0,0,95.13,29.24Z"/><path class="cls-3" d="M93.42,25.27a7.11,7.11,0,0,1,.42-3.79A10.13,10.13,0,0,0,93.42,25.27Z"/><path class="cls-3" d="M92.07,26.32a4.06,4.06,0,0,1,2.36,1.51A5.74,5.74,0,0,0,92.07,26.32Z"/><path class="cls-3" d="M92.3,27.06a6.13,6.13,0,0,1,2.43,1.64A11.4,11.4,0,0,0,92.3,27.06Z"/><path class="cls-3" d="M96.15,36.65a7.06,7.06,0,0,1,3.33,1.69A10.48,10.48,0,0,0,96.15,36.65Z"/><path class="cls-3" d="M96.24,36.06a6.23,6.23,0,0,1,2.62,1.18A12.09,12.09,0,0,0,96.24,36.06Z"/><path class="cls-3" d="M98.48,36.46A6,6,0,0,1,98.81,33,8.83,8.83,0,0,0,98.48,36.46Z"/><path class="cls-3" d="M99.05,37.5A9,9,0,0,1,99.24,34,16.67,16.67,0,0,0,99.05,37.5Z"/><path class="cls-3" d="M99.58,38.31a1.32,1.32,0,0,1-.11-.76c0-.25,0-.51.06-.77A6,6,0,0,1,100,35.3a8.6,8.6,0,0,0-.35,1.5,6.31,6.31,0,0,0-.08.76A1.46,1.46,0,0,0,99.58,38.31Z"/><path class="cls-3" d="M101.6,41.65a4,4,0,0,1,.25-2.59A6,6,0,0,0,101.6,41.65Z"/><path class="cls-3" d="M102.13,42.79a4.69,4.69,0,0,1,.25-2.79A7.31,7.31,0,0,0,102.13,42.79Z"/><path class="cls-5" d="M58.53,88.83a4.75,4.75,0,0,1,5.2,3.63c1.26-1.34.61-4,2.21-4.91A8.91,8.91,0,0,1,68.36,79a12.47,12.47,0,0,1-.14-10.17,5,5,0,0,1-1.7-3.65,22.29,22.29,0,0,1,0-5.77c-2.7-1.75-4.07-4.95-4.95-8A9.32,9.32,0,0,1,58,57.78a16.87,16.87,0,0,1-.25,5,6.57,6.57,0,0,1-2.71,4.09,1.19,1.19,0,0,0-.52.47,1.1,1.1,0,0,0,0,.54,31.46,31.46,0,0,1,.38,5.39,9.22,9.22,0,0,1-1.61,5.08A12.54,12.54,0,0,1,58.53,88.83Z"/><path class="cls-3" d="M58.53,88.83a4.81,4.81,0,0,1,5.32,3.61l-.2-.06a5,5,0,0,0,.89-2.5,6.22,6.22,0,0,1,.36-1.36,2.23,2.23,0,0,1,.94-1.14l-.1.23a9.18,9.18,0,0,1,2.42-8.83l-.06.33a12.64,12.64,0,0,1-.21-10.44l.13.44a4.15,4.15,0,0,1-1.51-2.2,11.8,11.8,0,0,1-.44-2.52,22.35,22.35,0,0,1,.1-5l.17.37A10.32,10.32,0,0,1,63,56a22,22,0,0,1-1.79-4.57l.75-.07a9.73,9.73,0,0,1-3.72,6.68l.14-.31A16,16,0,0,1,58,63.38a7.48,7.48,0,0,1-1.34,2.54,5.7,5.7,0,0,1-1.07,1c-.19.14-.43.28-.57.38s-.19.16-.2.33a35.77,35.77,0,0,1,.36,5.53,9.61,9.61,0,0,1-1.71,5.32l-.05-.29A12.65,12.65,0,0,1,58.53,88.83Zm0,0a12.44,12.44,0,0,0-5.35-10.3L53,78.42l.13-.17a9.26,9.26,0,0,0,1.53-5.1,37.35,37.35,0,0,0-.46-5.51,1,1,0,0,1,.43-.83l.57-.39a5.28,5.28,0,0,0,.92-.91,6.8,6.8,0,0,0,1.2-2.33,15.07,15.07,0,0,0,.35-5.37v-.19l.15-.12a9,9,0,0,0,3.4-6.18l.19-2,.56,2a20.42,20.42,0,0,0,1.75,4.39,9.44,9.44,0,0,0,3,3.44l.21.13,0,.24a22,22,0,0,0-.13,4.87,10.77,10.77,0,0,0,.4,2.37,3.37,3.37,0,0,0,1.22,1.83l.24.17-.12.27a12.27,12.27,0,0,0,.09,9.9l.08.2-.15.14a8.67,8.67,0,0,0-2.43,8.3l0,.16-.13.07A3.07,3.07,0,0,0,64.85,90a5.26,5.26,0,0,1-1,2.59l-.16.17,0-.23A4.7,4.7,0,0,0,58.53,88.83Z"/><path class="cls-3" d="M62.76,89.37A103.76,103.76,0,0,1,61,53.83a128.61,128.61,0,0,0,1.73,35.54Z"/><path class="cls-3" d="M60.38,64.11a30.46,30.46,0,0,0-.77-3.2,29.19,29.19,0,0,0-1.13-3.08,11.09,11.09,0,0,1,1.42,3A10.83,10.83,0,0,1,60.38,64.11Z"/><path class="cls-3" d="M64.48,60.63a19.83,19.83,0,0,0-2.58,4.21,19.55,19.55,0,0,0-1.44,4.72,13.16,13.16,0,0,1,1.16-4.85A13.3,13.3,0,0,1,64.48,60.63Z"/><path class="cls-3" d="M65,69.78a17.53,17.53,0,0,0-2.6,2.79,11.24,11.24,0,0,0-1,1.63A15.2,15.2,0,0,0,60.69,76a7.72,7.72,0,0,1,.53-1.86,9.13,9.13,0,0,1,1-1.7A10,10,0,0,1,65,69.78Z"/><path class="cls-3" d="M65.43,77.82a10.39,10.39,0,0,0-2.34,1.92,8.86,8.86,0,0,0-.93,1.19,10.82,10.82,0,0,0-.75,1.33A5.55,5.55,0,0,1,62,80.81a7.11,7.11,0,0,1,.9-1.27A6.21,6.21,0,0,1,65.43,77.82Z"/><path class="cls-3" d="M60.72,76.9A16.56,16.56,0,0,0,59,72a14.72,14.72,0,0,0-1.39-2.19,17.93,17.93,0,0,0-1.73-2,11.74,11.74,0,0,1,1.91,1.82,13,13,0,0,1,1.48,2.2A12.14,12.14,0,0,1,60.72,76.9Z"/><path class="cls-3" d="M61.59,83.31a10.87,10.87,0,0,0-2-3.42,10.48,10.48,0,0,0-1.45-1.37,11.25,11.25,0,0,0-1.68-1.09,7.35,7.35,0,0,1,1.82.9,8.68,8.68,0,0,1,1.54,1.36,8.91,8.91,0,0,1,1.15,1.7A7.4,7.4,0,0,1,61.59,83.31Z"/><path class="cls-3" d="M66.61,79.92A7.43,7.43,0,0,0,65,83.35a17,17,0,0,0,0,3.84,11.21,11.21,0,0,1-.16-3.88A6.1,6.1,0,0,1,66.61,79.92Z"/><path class="cls-3" d="M66.61,75.62a16.69,16.69,0,0,0,.55,2.71A3.66,3.66,0,0,1,66.61,75.62Z"/><path class="cls-3" d="M59,86.14a20.18,20.18,0,0,0-1.73-4.29,19.92,19.92,0,0,0-2.68-3.76.09.09,0,0,1,0-.11,11.32,11.32,0,0,0,1-7,10.72,10.72,0,0,1-.81,7V78a17.43,17.43,0,0,1,2.66,3.82A16.68,16.68,0,0,1,59,86.14Z"/><path class="cls-3" d="M64.5,59.24A3.88,3.88,0,0,1,62,56.85,7.75,7.75,0,0,0,64.5,59.24Z"/><path class="cls-3" d="M60.8,73.79a5,5,0,0,1,1.76-3.1A6.55,6.55,0,0,0,60.8,73.79Z"/><path class="cls-3" d="M60.58,72.68A5.23,5.23,0,0,1,62.1,70,7.71,7.71,0,0,0,60.58,72.68Z"/><path class="cls-3" d="M60.57,71.37A5,5,0,0,1,62,69.06,8.84,8.84,0,0,0,60.57,71.37Z"/><path class="cls-3" d="M60.52,70.11A4.79,4.79,0,0,1,62,68,8.32,8.32,0,0,0,60.52,70.11Z"/><path class="cls-3" d="M60.4,65.79a7.18,7.18,0,0,1,1.81-3.36A10.33,10.33,0,0,0,60.4,65.79Z"/><path class="cls-3" d="M58.76,66.26a4.1,4.1,0,0,1,1.64,2.29A5.76,5.76,0,0,0,58.76,66.26Z"/><path class="cls-3" d="M58.71,67a6.3,6.3,0,0,1,1.65,2.42A11.5,11.5,0,0,0,58.71,67Z"/><path class="cls-3" d="M58.73,77.37a7.11,7.11,0,0,1,2.46,2.81A10.34,10.34,0,0,0,58.73,77.37Z"/><path class="cls-3" d="M59,76.86a6.35,6.35,0,0,1,2,2.06A12.57,12.57,0,0,0,59,76.86Z"/><path class="cls-3" d="M61,78.06A6,6,0,0,1,62.54,75,8.75,8.75,0,0,0,61,78.06Z"/><path class="cls-3" d="M61.11,79.24a9,9,0,0,1,1.45-3.15A16.63,16.63,0,0,0,61.11,79.24Z"/><path class="cls-3" d="M61.3,80.18c-.07-.26.09-.5.17-.74s.22-.46.35-.69a6.2,6.2,0,0,1,.94-1.22,8.84,8.84,0,0,0-.87,1.26c-.13.22-.25.45-.36.68S61.26,79.93,61.3,80.18Z"/><path class="cls-3" d="M61.94,84a3.81,3.81,0,0,1,1.19-2.31A5.92,5.92,0,0,0,61.94,84Z"/><path class="cls-3" d="M62,85.3a4.67,4.67,0,0,1,1.28-2.5A7.15,7.15,0,0,0,62,85.3Z"/><path class="cls-4" d="M76.6,84.24a11.14,11.14,0,0,1,6.16,7.61,1.31,1.31,0,0,0,.45.9,1.26,1.26,0,0,0,.9,0,15.77,15.77,0,0,1,5.07-.38,7.34,7.34,0,0,1,4.55,2.1,9.87,9.87,0,0,1-1.6-8.68,8.36,8.36,0,0,1-6.95-4.33A13.62,13.62,0,0,1,77.51,83Z"/><path class="cls-3" d="M76.64,84.23a10.26,10.26,0,0,1,4.47,3.33A11.11,11.11,0,0,1,82.54,90,9.1,9.1,0,0,1,83,91.4c.13.47.19,1,.37,1s.66,0,1.12-.08.93-.13,1.4-.17a13.39,13.39,0,0,1,2.83,0,8.27,8.27,0,0,1,5.11,2.22l-.23.19a10,10,0,0,1-1.85-8.88l.36.49a8.29,8.29,0,0,1-4.25-1.28,8.38,8.38,0,0,1-3-3.25l.52.16a13.1,13.1,0,0,1-7.86,1.32l.11,0Zm-.08,0L77.41,83l0,0h.07A14,14,0,0,0,85,81.15l.33-.18.19.34a8,8,0,0,0,2.79,2.91,8.17,8.17,0,0,0,3.83,1.23l.5,0-.15.47a9.8,9.8,0,0,0,1.36,8.48l-.23.2a6.93,6.93,0,0,0-4.91-2.08,13.26,13.26,0,0,0-2.74.2c-.45.08-.9.17-1.35.28l-.69.14a1.13,1.13,0,0,1-1.43-.9l-.18-.68a9.63,9.63,0,0,0-.4-1.29,10.56,10.56,0,0,0-1.29-2.38A12.18,12.18,0,0,0,76.56,84.25Z"/><path class="cls-3" d="M91.17,91.7c-.94-.89-1.85-1.81-2.77-2.71a12.17,12.17,0,0,0-3.08-2.26,18,18,0,0,0-3.57-1.39c-1.24-.36-2.5-.65-3.75-1a23.78,23.78,0,0,1,7.46,2.08,11.74,11.74,0,0,1,3.1,2.36C89.46,89.76,90.31,90.73,91.17,91.7Z"/><path class="cls-3" d="M85.25,90.23c0-.27.13-.54.14-.79a1.48,1.48,0,0,0-.14-.74,7.3,7.3,0,0,0-.8-1.34,5,5,0,0,0-1.07-1.14A7.12,7.12,0,0,0,82,85.38a4.6,4.6,0,0,1,1.49.65,4.73,4.73,0,0,1,1.17,1.15,6.25,6.25,0,0,1,.78,1.44,1.71,1.71,0,0,1,.07.84C85.47,89.74,85.33,90,85.25,90.23Z"/><path class="cls-3" d="M90.44,87.9a1.29,1.29,0,0,1-.78.43,2.78,2.78,0,0,1-.91,0,4.17,4.17,0,0,1-1.62-.69c.29.06.57.14.85.21a7.65,7.65,0,0,0,.83.18,3.8,3.8,0,0,0,.82.08A1.83,1.83,0,0,0,90.44,87.9Z"/><path class="cls-3" d="M85.08,84.72a1,1,0,0,1-.52.6,2.14,2.14,0,0,1-.78.2,2.58,2.58,0,0,1-1.49-.44,6.42,6.42,0,0,0,.75.1,3.57,3.57,0,0,0,.73,0,2,2,0,0,0,.7-.1A1.39,1.39,0,0,0,85.08,84.72Z"/><path class="cls-3" d="M91.21,69.78a22.68,22.68,0,0,0,3-6.79,20.81,20.81,0,0,0,.57-7.32,21.07,21.07,0,0,0-1.93-7.08,23.17,23.17,0,0,0-4.19-6.13,19,19,0,0,1,4.74,5.85,19.55,19.55,0,0,1,1.4,14.84A18.67,18.67,0,0,1,91.21,69.78Z"/><path class="cls-3" d="M95.08,55.88a11.92,11.92,0,0,0-3.83-4.11,11.61,11.61,0,0,0-2.5-1.23,9.18,9.18,0,0,0-1.36-.39,5.57,5.57,0,0,0-.71-.14l-.36,0c-.12,0-.3-.09-.28-.24,0,.13.18.13.28.12l.37,0a6,6,0,0,1,.74,0,7.49,7.49,0,0,1,1.49.18,8.35,8.35,0,0,1,2.77,1.17A7.68,7.68,0,0,1,95.08,55.88Z"/><path class="cls-3" d="M91.48,69.53a28.05,28.05,0,0,0,0-5.42A19.14,19.14,0,0,0,91,61.49a7,7,0,0,0-1.12-2.43,4.8,4.8,0,0,1,1.71,2.23A10.44,10.44,0,0,1,92.28,64,10.75,10.75,0,0,1,91.48,69.53Z"/><path class="cls-3" d="M82.09,71.31c-1,1.16-2.07,2.32-3,3.52s-1.9,2.43-2.77,3.71-1.69,2.57-2.47,3.9-1.5,2.7-2.22,4.09a25.53,25.53,0,0,1,1.68-4.38,30.19,30.19,0,0,1,5.32-7.72A25.19,25.19,0,0,1,82.09,71.31Z"/><path class="cls-3" d="M74.31,96.35c-1.93-.7-3.74-1.59-5.63-2.18a14.3,14.3,0,0,0-5.87-.68,7.28,7.28,0,0,1,3-.59,10.69,10.69,0,0,1,3.08.52A18,18,0,0,1,74.31,96.35Z"/><path class="cls-3" d="M105.35,62.9c-.9.23-1.81.39-2.7.54s-1.79.25-2.65.48a29.07,29.07,0,0,0-5.1,1.76,11,11,0,0,1,4.92-2.54q.69-.15,1.38-.24c.46,0,.92-.06,1.39-.07A21.25,21.25,0,0,1,105.35,62.9Z"/><path class="cls-3" d="M114.31,55.12a7.67,7.67,0,0,0-4.37-.2,19.69,19.69,0,0,0-4.16,1.49,26.35,26.35,0,0,0-3.84,2.24,31.16,31.16,0,0,0-3.48,2.85,16.7,16.7,0,0,1,3.11-3.34,18.43,18.43,0,0,1,3.87-2.47,15,15,0,0,1,4.4-1.37,8.66,8.66,0,0,1,2.33,0A5.54,5.54,0,0,1,114.31,55.12Z"/><path class="cls-3" d="M74.06,81.32A26.53,26.53,0,0,0,75,72.11a9.45,9.45,0,0,1-.89,9.21Z"/><path class="cls-6" d="M109.32,60.85a3.18,3.18,0,0,1,1.58,3.46,3.14,3.14,0,0,1-6.06.1,2.7,2.7,0,0,1,0-1.71,3.75,3.75,0,0,1,3.1-2,2.44,2.44,0,0,1,.66,0A1.92,1.92,0,0,1,109.32,60.85Z"/><path class="cls-7" d="M109.32,60.85A3.23,3.23,0,0,1,110.73,65a3.44,3.44,0,0,1-1.83,1.65,3.16,3.16,0,0,1-2.5-.15,3.44,3.44,0,0,1-1.66-1.86,2.76,2.76,0,0,1,.24-2.44,3.56,3.56,0,0,1,2-1.37,4.33,4.33,0,0,1,1.18-.23,3,3,0,0,1,.6,0A2.3,2.3,0,0,1,109.32,60.85Zm0,0a2.27,2.27,0,0,0-.57-.2,3,3,0,0,0-.6,0,4.16,4.16,0,0,0-1.16.26,3.35,3.35,0,0,0-1.83,1.42,2.5,2.5,0,0,0-.08,2.2,3,3,0,0,0,1.51,1.61,3,3,0,0,0,2.73-5.31Z"/><path class="cls-7" d="M110.41,63.67a1.94,1.94,0,0,1,0,.72,1.86,1.86,0,0,1-.33.66,1.7,1.7,0,0,1-1.25.68,2.63,2.63,0,0,0,1.09-.81,2.08,2.08,0,0,0,.33-.58A3.65,3.65,0,0,0,110.41,63.67Z"/><path class="cls-7" d="M109.83,61.81a2.26,2.26,0,0,0-1.92-.57,3,3,0,0,0-1.83.84,2.44,2.44,0,0,0-.76,1.82,2.1,2.1,0,0,0,1,1.7,2,2,0,0,1-1.18-1.69,2.56,2.56,0,0,1,.77-2,3.14,3.14,0,0,1,2-.84A2.19,2.19,0,0,1,109.83,61.81Z"/><path class="cls-7" d="M108.15,61.69a2.46,2.46,0,0,0-1.93,1.08A2.49,2.49,0,0,0,106,65a2.16,2.16,0,0,1,2.12-3.29Z"/><path class="cls-7" d="M109.27,64.92c-.14-.07.06-.24,0-.26s0,0,0,0,0,.12,0,.16,0,0,0,0l0,0-.1,0c-.06,0-.13.09-.16.06s-.1-.07-.1,0,.09.09.17.13a.32.32,0,0,1-.25.17.35.35,0,0,1-.32-.33.64.64,0,0,1,.36-.58.85.85,0,0,1,.31-.09l.15,0a.49.49,0,0,1,.24.09c.12,0,.13.27.1.34a.47.47,0,0,1-.13.15C109.37,65,109.32,64.83,109.27,64.92Z"/><path class="cls-6" d="M80.41,71.15a2.65,2.65,0,0,1,3.74-3.53,2.8,2.8,0,0,1,1.15,3.07,2.39,2.39,0,0,1-.83,1.21,3.22,3.22,0,0,1-3.18,0,2,2,0,0,1-.49-.29A1.65,1.65,0,0,1,80.41,71.15Z"/><path class="cls-7" d="M80.41,71.15a2.77,2.77,0,0,1,.94-3.68,2.9,2.9,0,0,1,2.1-.34,2.7,2.7,0,0,1,1.74,1.28,3,3,0,0,1,.33,2.14,2.4,2.4,0,0,1-1.34,1.65,3.07,3.07,0,0,1-2.07,0,4.21,4.21,0,0,1-1-.39,2.12,2.12,0,0,1-.43-.28A1.58,1.58,0,0,1,80.41,71.15Zm0,0a1.81,1.81,0,0,0,.32.41,4.5,4.5,0,0,0,.43.27,4.09,4.09,0,0,0,1,.35,2.88,2.88,0,0,0,2-.18,2.44,2.44,0,0,0,.74-3.38,2.55,2.55,0,0,0-4.42,2.53Z"/><path class="cls-7" d="M80.94,68.62a1.66,1.66,0,0,1,.34-.53,1.62,1.62,0,0,1,.55-.33,1.45,1.45,0,0,1,1.22.12,2.37,2.37,0,0,0-1.16.08,2,2,0,0,0-.51.26A4,4,0,0,0,80.94,68.62Z"/><path class="cls-7" d="M80.49,70.22a2,2,0,0,0,1.12,1.3,2.65,2.65,0,0,0,1.7.25,2,2,0,0,0,1.38-1,1.75,1.75,0,0,0,.08-1.69,1.75,1.75,0,0,1,.07,1.77A2.2,2.2,0,0,1,83.35,72a2.81,2.81,0,0,1-1.82-.31A1.92,1.92,0,0,1,80.49,70.22Z"/><path class="cls-7" d="M81.64,71.1a2.07,2.07,0,0,0,3.07-1.38,1.85,1.85,0,0,1-3.07,1.38Z"/><path class="cls-7" d="M82.34,68.25c.09.12-.15.16-.1.21a.08.08,0,0,0,0,.05s.08-.11.07-.17,0-.07,0-.07h.13s.11,0,.11,0,0,.13.07.09,0-.1,0-.19a.28.28,0,0,1,.28,0,.31.31,0,0,1,.08.42.59.59,0,0,1-.56.27.66.66,0,0,1-.27-.09.31.31,0,0,1-.11-.09.41.41,0,0,1-.14-.2c-.07-.1,0-.29.1-.32a.3.3,0,0,1,.18,0C82.3,68.17,82.26,68.28,82.34,68.25Z"/><path class="cls-6" d="M72.84,70.05a2.54,2.54,0,0,1,2.51-1.73,2.51,2.51,0,0,1,.93,4.76,2.22,2.22,0,0,1-1.36.22,3,3,0,0,1-2-2.16,1.87,1.87,0,0,1-.12-.52A1.61,1.61,0,0,1,72.84,70.05Z"/><path class="cls-7" d="M72.84,70.05A2.61,2.61,0,0,1,76,68.33a2.73,2.73,0,0,1,1.58,1.21,2.59,2.59,0,0,1,.25,2,2.85,2.85,0,0,1-1.25,1.6,2.29,2.29,0,0,1-2,.14,3,3,0,0,1-1.36-1.39,4.3,4.3,0,0,1-.35-.9,4,4,0,0,1-.08-.48A2,2,0,0,1,72.84,70.05Zm0,0a2,2,0,0,0-.07.48,2.6,2.6,0,0,0,.09.47,3.6,3.6,0,0,0,.38.88,2.69,2.69,0,0,0,1.38,1.22,2.27,2.27,0,0,0,2.75-1.66,2.37,2.37,0,0,0-4.53-1.39Z"/><path class="cls-7" d="M74.91,68.8a1.35,1.35,0,0,1,.57-.11,1.37,1.37,0,0,1,.58.16,1.33,1.33,0,0,1,.69.91A2.2,2.2,0,0,0,76,69a1.88,1.88,0,0,0-.5-.18A3.31,3.31,0,0,0,74.91,68.8Z"/><path class="cls-7" d="M73.53,69.52a1.82,1.82,0,0,0-.17,1.59,2.45,2.45,0,0,0,.92,1.31,1.92,1.92,0,0,0,1.52.33,1.68,1.68,0,0,0,1.21-1,1.63,1.63,0,0,1-1.17,1.18,2,2,0,0,1-1.69-.32,2.56,2.56,0,0,1-1-1.44A1.76,1.76,0,0,1,73.53,69.52Z"/><path class="cls-7" d="M73.66,70.86A2,2,0,0,0,74.8,72.2a2,2,0,0,0,1.76-.13,1.72,1.72,0,0,1-2.9-1.21Z"/><path class="cls-7" d="M76.05,69.52c0,.14-.22,0-.21.07a.06.06,0,0,0,0,0s.14,0,.17-.07,0-.07.05-.06l0,0s0,0,.05,0,.07.07,0,.11-.07.12,0,.12.08-.07.11-.15a.27.27,0,0,1,.2.18.29.29,0,0,1-.24.34.6.6,0,0,1-.68-.45.71.71,0,0,1,0-.14.44.44,0,0,1,.05-.23c0-.12.23-.17.3-.15a.4.4,0,0,1,.15.1C76.09,69.43,76,69.47,76.05,69.52Z"/><path class="cls-6" d="M85.88,40.09a2.86,2.86,0,0,1,3.39-.64,2.91,2.91,0,0,1,1.45,3.14,2.94,2.94,0,0,1-2.67,2.21,2.4,2.4,0,0,1-1.5-.4,3.41,3.41,0,0,1-1.13-3.17,2.38,2.38,0,0,1,.12-.59A1.64,1.64,0,0,1,85.88,40.09Z"/><path class="cls-7" d="M85.88,40.09a2.94,2.94,0,0,1,4-.34,3.11,3.11,0,0,1,1.06,2,2.91,2.91,0,0,1-.67,2.18,3.17,3.17,0,0,1-2,1.07,2.55,2.55,0,0,1-2.1-.76,3.22,3.22,0,0,1-.77-2.05,4.41,4.41,0,0,1,0-1.09,2.93,2.93,0,0,1,.13-.53A1.8,1.8,0,0,1,85.88,40.09Zm0,0a1.65,1.65,0,0,0-.29.45,2.53,2.53,0,0,0-.12.53,4.35,4.35,0,0,0,0,1.08,3.07,3.07,0,0,0,.86,1.91A2.58,2.58,0,0,0,90,43.62a2.69,2.69,0,0,0-4.07-3.53Z"/><path class="cls-7" d="M88.76,39.85a1.79,1.79,0,0,1,1.13.81,2.09,2.09,0,0,1,.27.66.9.9,0,0,1-.09.7,1,1,0,0,0-.07-.65,2.22,2.22,0,0,0-.29-.6A2.89,2.89,0,0,0,88.76,39.85Z"/><path class="cls-7" d="M85.71,41.79a4.27,4.27,0,0,0,.5,1.43,2,2,0,0,0,1.15.88A2.08,2.08,0,0,0,89.85,43a2,2,0,0,1-1,1.19,2.09,2.09,0,0,1-1.57.15,2.15,2.15,0,0,1-1.23-1A3.43,3.43,0,0,1,85.71,41.79Z"/><path class="cls-7" d="M86.65,43.21a2.14,2.14,0,0,0,1.43.5,2.1,2.1,0,0,0,1.37-.63,1.65,1.65,0,0,1-2.8.13Z"/><path class="cls-7" d="M86.9,40.06c0,.15-.09.27,0,.29s0,0,.09,0a.62.62,0,0,0,.26-.09.5.5,0,0,0,.13-.07c.06,0,.1,0,.06-.12.24,0,.11.35,0,.43a.69.69,0,0,1-.4.27c-.18,0-.5-.08-.49-.36S86.77,40.09,86.9,40.06Z"/><path class="cls-7" d="M86.32,40.21a1.1,1.1,0,0,0,.24.49,1.21,1.21,0,0,0,.42.35.53.53,0,1,1-.66-.84Z"/><path class="cls-6" d="M116.41,51.7a2.94,2.94,0,0,1-2,5.36,3.07,3.07,0,0,1-2.65-2.47A2.55,2.55,0,0,1,112,53a3.57,3.57,0,0,1,3.14-1.6,2.23,2.23,0,0,1,.63,0A2,2,0,0,1,116.41,51.7Z"/><path class="cls-7" d="M116.41,51.7a3.07,3.07,0,0,1,.89,4.11,3.23,3.23,0,0,1-1.9,1.37,3,3,0,0,1-2.35-.41,3.27,3.27,0,0,1-1.38-1.93,2.71,2.71,0,0,1,.49-2.29,3.47,3.47,0,0,1,2-1.08,4.39,4.39,0,0,1,1.14-.09,2.69,2.69,0,0,1,.57.06A2,2,0,0,1,116.41,51.7Zm0,0a2,2,0,0,0-.51-.24,2.75,2.75,0,0,0-.57-.05,4.3,4.3,0,0,0-1.13.12,3.22,3.22,0,0,0-1.87,1.15,2.41,2.41,0,0,0-.3,2.07,2.91,2.91,0,0,0,1.25,1.67,2.83,2.83,0,0,0,3.13-4.72Z"/><path class="cls-7" d="M117.05,54.66a2,2,0,0,1-.7,1.28,2,2,0,0,1-.65.37.89.89,0,0,1-.73,0,1.06,1.06,0,0,0,.67-.16,2.49,2.49,0,0,0,.58-.37A3.13,3.13,0,0,0,117.05,54.66Z"/><path class="cls-7" d="M114.62,51.76a4.08,4.08,0,0,0-1.43.71,2.15,2.15,0,0,0-.76,1.31,2.11,2.11,0,0,0,.29,1.49,2.32,2.32,0,0,0,1.24.95,2.14,2.14,0,0,1-1.74-2.48,2.2,2.2,0,0,1,.87-1.4A3.63,3.63,0,0,1,114.62,51.76Z"/><path class="cls-7" d="M113.27,52.93a2.18,2.18,0,0,0-.33,1.54,2.13,2.13,0,0,0,.84,1.34,1.73,1.73,0,0,1-.51-2.88Z"/><path class="cls-7" d="M116.58,52.76c-.16,0-.29-.06-.32,0s0,0,0,.1.08.17.13.26a.42.42,0,0,0,.1.12c0,.06.06.09.13,0,0,.24-.34.15-.44.08a.83.83,0,0,1-.33-.38.42.42,0,0,1,.31-.55C116.45,52.43,116.52,52.63,116.58,52.76Z"/><path class="cls-7" d="M116.34,52.18a1.08,1.08,0,0,0-.49.3,1.18,1.18,0,0,0-.29.49.54.54,0,0,1,0-.79A.55.55,0,0,1,116.34,52.18Z"/><path class="cls-6" d="M92.28,56.21a3,3,0,0,1,1.1,3.37,3,3,0,0,1-3,1.88A3,3,0,0,1,87.77,59,2.6,2.6,0,0,1,88,57.46a3.47,3.47,0,0,1,3.08-1.56,2.09,2.09,0,0,1,.61,0A2,2,0,0,1,92.28,56.21Z"/><path class="cls-7" d="M92.28,56.21a3,3,0,0,1,.87,4,3.18,3.18,0,0,1-1.86,1.34,3,3,0,0,1-2.3-.4,3.23,3.23,0,0,1-1.35-1.9A2.6,2.6,0,0,1,88.12,57a3.35,3.35,0,0,1,2-1,4.59,4.59,0,0,1,1.11-.1,3.43,3.43,0,0,1,.56.07A2.13,2.13,0,0,1,92.28,56.21Zm0,0a2.55,2.55,0,0,0-.5-.24,3.43,3.43,0,0,0-.56,0,4.53,4.53,0,0,0-1.1.13,3.18,3.18,0,0,0-1.83,1.12,2.64,2.64,0,0,0,.93,3.65,2.77,2.77,0,0,0,3.06-4.61Z"/><path class="cls-7" d="M92.9,59.11a1.86,1.86,0,0,1-.67,1.25,2.14,2.14,0,0,1-.64.36.9.9,0,0,1-.72,0,1.18,1.18,0,0,0,.66-.16,2.59,2.59,0,0,0,.56-.37A2.86,2.86,0,0,0,92.9,59.11Z"/><path class="cls-7" d="M90.53,56.26a4.49,4.49,0,0,0-1.4.7,2.05,2.05,0,0,0-.74,1.29,2,2,0,0,0,.28,1.45,2.26,2.26,0,0,0,1.21.93,2,2,0,0,1-1.34-.84,2.1,2.1,0,0,1-.36-1.58A2.2,2.2,0,0,1,89,56.83,3.62,3.62,0,0,1,90.53,56.26Z"/><path class="cls-7" d="M89.21,57.41a2.08,2.08,0,0,0,.5,2.83,1.7,1.7,0,0,1-.5-2.83Z"/><path class="cls-7" d="M92.44,57.25c-.15,0-.28-.06-.3,0s0,0,0,.1a.6.6,0,0,0,.13.25.62.62,0,0,0,.08.12c0,.05.07.09.14.05,0,.23-.34.14-.43.08a.75.75,0,0,1-.33-.37.43.43,0,0,1,.3-.55C92.32,56.92,92.39,57.11,92.44,57.25Z"/><path class="cls-7" d="M92.21,56.68a1.08,1.08,0,0,0-.47.3,1.24,1.24,0,0,0-.3.48.55.55,0,1,1,.77-.78Z"/><path class="cls-6" d="M79.06,98.15a3.17,3.17,0,0,1-6-1.43,3.33,3.33,0,0,1,2.32-3.15,2.83,2.83,0,0,1,1.75,0,3.85,3.85,0,0,1,2.1,3.17,2.59,2.59,0,0,1,0,.68A2.2,2.2,0,0,1,79.06,98.15Z"/><path class="cls-7" d="M79.06,98.15a3.31,3.31,0,0,1-4.29,1.45,3.52,3.52,0,0,1-1.69-1.87,3.23,3.23,0,0,1,.15-2.55,3.5,3.5,0,0,1,1.9-1.71,2.84,2.84,0,0,1,2.49.24,3.71,3.71,0,0,1,1.41,2A5.09,5.09,0,0,1,79.27,97a3.21,3.21,0,0,1,0,.62A2.37,2.37,0,0,1,79.06,98.15Zm0,0a2.49,2.49,0,0,0,.2-.58,4.15,4.15,0,0,0,0-.61,5,5,0,0,0-.27-1.2,3.44,3.44,0,0,0-1.46-1.86,2.6,2.6,0,0,0-2.26-.09,3.2,3.2,0,0,0-1.64,1.56,3.09,3.09,0,0,0,1.25,4A3.12,3.12,0,0,0,79.06,98.15Z"/><path class="cls-7" d="M76,99.19a2.07,2.07,0,0,1-1.45-.59A2.58,2.58,0,0,1,74,98a1,1,0,0,1-.1-.78,1.17,1.17,0,0,0,.25.7,2.39,2.39,0,0,0,.47.58A3.18,3.18,0,0,0,76,99.19Z"/><path class="cls-7" d="M78.78,96.24a4.74,4.74,0,0,0-.93-1.45,2.29,2.29,0,0,0-1.51-.66,2.22,2.22,0,0,0-1.56.5,2.52,2.52,0,0,0-.86,1.44,2.31,2.31,0,0,1,2.44-2.15,2.38,2.38,0,0,1,1.6.76A3.79,3.79,0,0,1,78.78,96.24Z"/><path class="cls-7" d="M77.36,94.94a2.3,2.3,0,0,0-1.7-.18,2.37,2.37,0,0,0-1.33,1.07,1.88,1.88,0,0,1,3-.89Z"/><path class="cls-7" d="M78,98.45c0-.16,0-.31,0-.33a.15.15,0,0,0-.13,0,.58.58,0,0,0-.26.18l-.12.12s-.08.09,0,.15c-.25,0-.19-.34-.14-.45a.82.82,0,0,1,.37-.39.42.42,0,0,1,.6.25C78.27,98.28,78.08,98.38,78,98.45Z"/><path class="cls-7" d="M78.54,98.13a1.07,1.07,0,0,0-.38-.49,1.17,1.17,0,0,0-.57-.25.58.58,0,0,1,.83-.09A.58.58,0,0,1,78.54,98.13Z"/><path class="cls-6" d="M82.93,47.67a3,3,0,0,1,3.23-1.45A3,3,0,0,1,88.35,49a3,3,0,0,1-2.14,2.84,2.54,2.54,0,0,1-1.59,0,3.49,3.49,0,0,1-1.87-2.9,2.5,2.5,0,0,1,0-.61A2,2,0,0,1,82.93,47.67Z"/><path class="cls-7" d="M82.93,47.67a3,3,0,0,1,3.91-1.29,3.17,3.17,0,0,1,1.53,1.71,2.93,2.93,0,0,1-.16,2.32A3.19,3.19,0,0,1,86.47,52a2.62,2.62,0,0,1-2.28-.25,3.34,3.34,0,0,1-1.25-1.86,4.12,4.12,0,0,1-.21-1.1,2.62,2.62,0,0,1,0-.56A1.93,1.93,0,0,1,82.93,47.67Zm0,0a1.89,1.89,0,0,0-.18.52,2.62,2.62,0,0,0,0,.56A4,4,0,0,0,83,49.83a3.18,3.18,0,0,0,1.3,1.7,2.65,2.65,0,0,0,3.54-1.31,2.77,2.77,0,0,0-4.91-2.55Z"/><path class="cls-7" d="M85.75,46.74a1.86,1.86,0,0,1,1.31.54,2,2,0,0,1,.42.6.94.94,0,0,1,.09.71,1.1,1.1,0,0,0-.23-.63,2.38,2.38,0,0,0-.43-.52A2.92,2.92,0,0,0,85.75,46.74Z"/><path class="cls-7" d="M83.17,49.4A4,4,0,0,0,84,50.72a2,2,0,0,0,1.35.6,2,2,0,0,0,1.42-.44,2.27,2.27,0,0,0,.8-1.29,2.11,2.11,0,0,1-.7,1.42,2.13,2.13,0,0,1-1.53.52,2.18,2.18,0,0,1-1.46-.7A3.46,3.46,0,0,1,83.17,49.4Z"/><path class="cls-7" d="M84.44,50.59a2.07,2.07,0,0,0,2.76-.79A1.69,1.69,0,0,1,86,51,1.71,1.71,0,0,1,84.44,50.59Z"/><path class="cls-7" d="M83.94,47.4c0,.15,0,.29,0,.3s0,0,.09,0a.72.72,0,0,0,.24-.15l.11-.1s.08-.08,0-.14c.23,0,.18.32.13.42a.73.73,0,0,1-.34.36.41.41,0,0,1-.57-.24C83.63,47.55,83.82,47.46,83.94,47.4Z"/><path class="cls-7" d="M83.4,47.68a1.23,1.23,0,0,0,.35.44,1.09,1.09,0,0,0,.51.25.55.55,0,1,1-.86-.69Z"/><path class="cls-3" d="M105.93,48.1a76.26,76.26,0,0,1-9.5,16.15c-1.92,2.47-4,4.78-6.15,7.08S86,75.85,83.69,78c-1.14,1.07-2.29,2.13-3.49,3.14s-2.45,2-3.68,2.91c-2.46,1.94-5,3.82-7.54,5.59-5.13,3.54-10.75,6.68-16.9,8,0,0,0,0,0,0a.05.05,0,0,1,0,0c6-1.82,11.33-5.1,16.42-8.64,2.54-1.79,5.07-3.62,7.55-5.5l3.74-2.79,1.82-1.46,1.79-1.5a71,71,0,0,0,6.68-6.53,83.14,83.14,0,0,0,5.81-7.31,136.91,136.91,0,0,0,10-15.76,0,0,0,0,1,.06,0A0,0,0,0,1,105.93,48.1Z"/><text class="cls-8" transform="translate(45.91 31.14)">5</text><text class="cls-9" transform="translate(60.31 21.41)">Ç</text><text class="cls-10" transform="translate(57.57 112.8)">Ilex chinensis Sims</text><path class="cls-11" d="M110.07,102.83l.31-.2a.94.94,0,0,0-.06-1.47,27.48,27.48,0,0,0-13.34-4,3.82,3.82,0,0,1-.2.47h0a4.62,4.62,0,0,1-1.09.73c-.28.33-.56.66-.83,1a29.54,29.54,0,0,1,14.56,3.39A.75.75,0,0,0,110.07,102.83Zm-3.88-3a.15.15,0,0,1-.12-.25c.06-.08.17-.12.25-.19a2.39,2.39,0,0,0,.13.28C106.36,99.7,106.27,99.81,106.19,99.81Z"/><path class="cls-11" d="M87.32,98.4a28.61,28.61,0,0,0-9.65,5l0,.08c-.09.06-.17.16-.26.16h0c-.21.16-.42.32-.62.5-3.11,2.65-5.77,5.78-8.81,8.51-3.24,2.9-6.9,5.13-11.29,5.63a26.14,26.14,0,0,1-9.78-1.05,1,1,0,0,1-.52.06c-.23-.06-.31-.16-.29-.29l-1-.29c-7-2.17-14-5.63-21.4-6.09.09.25-.05.54-.25.49a4,4,0,0,0-2.38.34c-.06,0-.21-.1-.26-.19a.37.37,0,0,1,0-.31,1,1,0,0,1,.54-.35c-.39,0-.78,0-1.17,0,0,0,0,0,0,0a.54.54,0,0,1-.62,0A26.45,26.45,0,0,0,.22,122.54a1.4,1.4,0,0,1,.28.32c.12.25,0,.58-.24.52l-.26,0a.52.52,0,0,0,.92.13,25.3,25.3,0,0,1,5.32-5.75.54.54,0,0,1-.22,0c-.41-.1-.34-.37-.11-.63h0c.11-.12.2-.31.34-.36a.46.46,0,0,1,.68.31.39.39,0,0,1,0,.15,24.89,24.89,0,0,1,15-5,27.84,27.84,0,0,1,3.89.35.47.47,0,0,1,.57,0,1,1,0,0,1,.15.11c6.15,1.11,12,3.95,17.86,5.85a36.66,36.66,0,0,0,8.19,1.75.28.28,0,0,1,.05-.16c.36-.48,1-.37,1.44-.56.46-.58.46-.58,1.07-.18a1.52,1.52,0,0,1,.34.38c.12.25,0,.58-.24.52a2.73,2.73,0,0,0-1.53.07A19.52,19.52,0,0,0,65,117.57c6.79-4.15,11-11.45,18.15-15.15a26.67,26.67,0,0,1,10.06-2.91c.6-.8,1.24-1.57,1.91-2.32A30.41,30.41,0,0,0,87.32,98.4Zm-11.38,8.88c-.11.15-.6.17-.64,0a1.6,1.6,0,0,1,.16-1.33s.24,0,.29.05a3.05,3.05,0,0,1,.31.46A.91.91,0,0,1,75.94,107.28Z"/><path class="cls-11" d="M81.71,115.2c-.78.67-1.54,1.37-2.29,2.09l.32.2a1.75,1.75,0,0,1,.34.38c.12.25,0,.58-.24.52a2.81,2.81,0,0,0-1.63.1c-1.75,1.76-3.46,3.56-5.31,5.22-3.24,2.9-6.89,5.13-11.29,5.63A28.71,28.71,0,0,1,50,127.77c-3.87-1.2-7.71-2.78-11.62-4l.14.22a.94.94,0,0,1-.12.82c-.11.14-.6.16-.65,0a1.66,1.66,0,0,1,.11-1.22,36.42,36.42,0,0,0-10.85-1.93,26.4,26.4,0,0,0-19.61,9,.31.31,0,0,1,0,.1.43.43,0,0,1-.25.58,1.54,1.54,0,0,1-.48.12A26.05,26.05,0,0,0,5,133.86c-.38.59.49,1.24.89.65a25.32,25.32,0,0,1,21-11.24c5.8.07,11.24,2.17,16.64,4.22l.08-.1a.53.53,0,0,1,0-.17c.35-.65.62-.81,1-.57s.53.58.17,1.27h0s0,0,0,0c1.52.57,3,1.13,4.58,1.62,6.92,2.23,14.14,3,20.61-1s10.45-10.5,16.78-14.38q.25-1.42.63-2.82A29,29,0,0,0,81.71,115.2ZM54.2,130.05c-.14,0-.19-.12-.11-.24a.82.82,0,0,1,.25-.19l.12.27C54.37,130,54.29,130.05,54.2,130.05Z"/><path class="cls-11" d="M96.33,110.78a2.3,2.3,0,0,1,.55-.93.47.47,0,0,1,0-.17c.35-.66.62-.81,1-.57s.53.58.17,1.27h0l-.24.2a28.23,28.23,0,0,1,5.36,0,21.06,21.06,0,0,1,1.26-2.09,30,30,0,0,0-12.21,1,28.49,28.49,0,0,0-3.42,1.26c-.27.9-.51,1.81-.71,2.73A26.8,26.8,0,0,1,96.33,110.78Z"/><path class="cls-11" d="M115.26,112.21a27.14,27.14,0,0,0-9.42-3.54,22,22,0,0,0-1.31,2,29.82,29.82,0,0,1,9.83,3.14C115.3,114.34,116.17,112.77,115.26,112.21Z"/><path class="cls-11" d="M98.87,121h0a.34.34,0,0,1,.11-.44.38.38,0,0,1,.42.24.37.37,0,0,1,0,.14c.46,0,.93-.08,1.4-.1a18.08,18.08,0,0,1,0-2.21,29.8,29.8,0,0,0-7,1.18,27.73,27.73,0,0,0-6.38,2.78c.05.79.14,1.59.26,2.39a22.09,22.09,0,0,1,1.94-1.16A26.85,26.85,0,0,1,98.87,121Zm-5.17-1a.38.38,0,0,1,.3,0,3.66,3.66,0,0,1,.31.46,1,1,0,0,1-.12.82c-.11.14-.6.16-.65,0A1.7,1.7,0,0,1,93.7,120Z"/><path class="cls-11" d="M113,122.23a.47.47,0,0,1,0-.17c.35-.66.62-.81,1-.57s.53.58.17,1.27h0a6.25,6.25,0,0,1-.5.4c.78.33,1.55.68,2.31,1.07.94.5,1.81-1.07.9-1.63a26.65,26.65,0,0,0-8.91-3.44.76.76,0,0,1-.15.45c-.11.14-.6.16-.65,0a1.84,1.84,0,0,1-.06-.61,29.59,29.59,0,0,0-5-.38,18.19,18.19,0,0,0-.05,2.22,29.37,29.37,0,0,1,10.51,1.89A3.59,3.59,0,0,1,113,122.23Z"/><path class="cls-11" d="M83.32,125.58c-3.11,2.66-5.77,5.79-8.81,8.52-3.24,2.9-6.89,5.13-11.29,5.63a19.87,19.87,0,0,1-2.67.1,2.82,2.82,0,0,1-.94.32,2.21,2.21,0,0,1,0-.37,35.18,35.18,0,0,1-8-1.62c-5.73-1.77-11.39-4.39-17.31-5.55a.42.42,0,0,1-.2.17,1.2,1.2,0,0,1-.66.11c-.34-.08-.35-.27-.23-.48a28.06,28.06,0,0,0-4.59-.39A25.83,25.83,0,0,0,18.92,134a.43.43,0,0,1,.35.34.45.45,0,0,1-.25.58,1.19,1.19,0,0,1-.66.11c-.41-.1-.34-.37-.11-.63h0l.12-.16A26.47,26.47,0,0,0,6.58,144.24c-.38.6.49,1.25.89.66a25.45,25.45,0,0,1,17.86-11.07.15.15,0,0,1,0-.17,1.18,1.18,0,0,1,.25-.19l.13.28-.07,0a23.93,23.93,0,0,1,2.81-.14,36.23,36.23,0,0,1,11.21,2.24.32.32,0,0,1,0-.18c.36-.48,1-.37,1.45-.55.46-.59.46-.59,1.06-.19.12.13.28.23.35.38s0,.58-.24.52a3.37,3.37,0,0,0-2,.23c3.58,1.25,7.09,2.73,10.64,3.87,6.92,2.23,14.14,3,20.61-1,3.7-2.27,6.65-5.48,9.72-8.52h-.06c-.14,0-.19-.12-.11-.24a1,1,0,0,1,.25-.19c0,.08.07.16.1.23a46.94,46.94,0,0,1,5.16-4.51c-.14-.81-.23-1.63-.3-2.44A29.38,29.38,0,0,0,83.32,125.58ZM44.83,137.36c-.2.09-.33-.05-.4-.22a.35.35,0,0,1,.12-.45.39.39,0,0,1,.42.25A.28.28,0,0,1,44.83,137.36Zm20.6,4a1.2,1.2,0,0,1-.66.11c-.42-.1-.35-.37-.12-.63h0c.12-.12.21-.31.35-.36a.46.46,0,0,1,.68.31A.44.44,0,0,1,65.43,141.33Zm20-14.71a3.57,3.57,0,0,1-1.85,1,2.08,2.08,0,0,1,.63-1.51s0-.12,0-.17c.35-.65.62-.81,1-.57s.52.58.17,1.27Z"/><path class="cls-11" d="M87.2,139.49c-1.89,1.61-3.61,3.4-5.36,5.16a2.81,2.81,0,0,0,.59-.13c.47-.59.47-.59,1.07-.19a1.72,1.72,0,0,1,.34.38c.12.25,0,.58-.24.53a4,4,0,0,0-2.38.34s-.13,0-.19-.11c-.86.86-1.74,1.72-2.65,2.53-3.23,2.91-6.89,5.14-11.28,5.63a21.31,21.31,0,0,1-5.11-.09,2.93,2.93,0,0,1-1.19.48,2,2,0,0,1,.1-.64,40.86,40.86,0,0,1-5.37-1.32c-3.89-1.2-7.74-2.79-11.66-4.05,0,0,0,0,0,0,.12.25,0,.58-.24.52a4,4,0,0,0-2.38.35c-.06,0-.21-.11-.25-.2a.34.34,0,0,1,0-.31c.36-.48,1-.37,1.44-.55l.18-.23a35.5,35.5,0,0,0-10.13-1.71,26.41,26.41,0,0,0-21.47,11.33.46.46,0,0,1,.67.31.45.45,0,0,1-.25.58,1.19,1.19,0,0,1-.66.11c-.18-.05-.26-.12-.29-.21l-.08.11c-.37.6.5,1.25.89.65A25.73,25.73,0,0,1,25.2,148.58a.23.23,0,0,1,0-.1c.36-.49,1-.38,1.44-.56.47-.59.47-.59,1.07-.19.06.07.14.13.2.2a23,23,0,0,1,4.39-.37c5.21.06,10.13,1.77,15,3.59a.33.33,0,0,1,.15-.28.39.39,0,0,1,.42.24.37.37,0,0,1,0,.27c2.31.87,4.6,1.75,6.9,2.5,6.92,2.23,14.15,3,20.61-1,6.18-3.78,10.24-10.14,16.29-14.06-.4-.6-.77-1.22-1.13-1.85A29.1,29.1,0,0,0,87.2,139.49ZM66.46,155a1.11,1.11,0,0,1-.66.11c-.41-.1-.35-.36-.11-.62h0c.11-.13.2-.31.34-.37a.46.46,0,0,1,.68.31A.44.44,0,0,1,66.46,155Z"/><path class="cls-11" d="M107.07,134.76a21,21,0,0,1-2-2.22,30.59,30.59,0,0,0-7.34,1.2,28.71,28.71,0,0,0-6.1,2.62c.36.63.73,1.25,1.13,1.85.26-.15.52-.31.79-.45A27.15,27.15,0,0,1,107.07,134.76Zm-6.77-1.47a.39.39,0,0,1,.42.25.29.29,0,0,1-.14.42c-.2.09-.33-.05-.4-.22A.35.35,0,0,1,100.3,133.29Z"/><path class="cls-11" d="M116,135.25a.86.86,0,0,1,0-.17,1.34,1.34,0,0,1,.54-.64,28.21,28.21,0,0,0-9.91-1.92,20.06,20.06,0,0,0,2.41,2.38,29.38,29.38,0,0,1,6.34,1.36A2.33,2.33,0,0,1,116,135.25Z"/><path class="cls-11" d="M117.21,135.78h0a4.62,4.62,0,0,1-1.09.73,30.62,30.62,0,0,1,3.72,1.63.75.75,0,0,0,.86-.09.35.35,0,0,1-.18,0c-.42-.1-.35-.37-.12-.63h0c.12-.12.21-.31.35-.36a.57.57,0,0,1,.36,0,.77.77,0,0,0-.37-.51,25,25,0,0,0-3.41-1.76C117.52,135,117.47,135.27,117.21,135.78Z"/><path class="cls-11" d="M188.91,104.85c.06.12.16,0,.07-.31l-.22-.21Z"/><path class="cls-11" d="M188.77,102.48c-.18-.38-.44-.81-.53-.51.26.35.21.46.51.85.09.34.06.61,0,.56.07.12.06.54.21.71a3.25,3.25,0,0,0-.3-1.61C188.66,102.35,188.73,102.46,188.77,102.48Z"/><path class="cls-11" d="M168.28,76.22l.19.12Z"/><path class="cls-11" d="M147.46,72.36c.17,0,.23,0,.24-.06C147.55,72.32,147.43,72.34,147.46,72.36Z"/><path class="cls-11" d="M143.8,72.7l.22,0A.47.47,0,0,0,143.8,72.7Z"/><path class="cls-11" d="M168.28,76.22l-.5-.3C167.72,76,168,76.09,168.28,76.22Z"/><path class="cls-11" d="M187,98.08a2.43,2.43,0,0,0,.14.28l-.11-.27Z"/><path class="cls-11" d="M176.26,81.25l.13.11.16,0Z"/><path class="cls-11" d="M181.38,86.39c-.1-.13-.25-.08-.34-.08a.66.66,0,0,1,.31.21A.19.19,0,0,0,181.38,86.39Z"/><path class="cls-11" d="M187,96.37l.09.18Z"/><path class="cls-11" d="M172.08,78.15a.11.11,0,0,0,0-.08S172.06,78.11,172.08,78.15Z"/><path class="cls-11" d="M189,113.07s0,0,0,0S189,113,189,113.07Z"/><path class="cls-11" d="M189.3,104.78l0,.12h.09Z"/><path class="cls-11" d="M137.25,74.34h0C137.44,74.26,137.35,74.3,137.25,74.34Z"/><path class="cls-11" d="M114.8,125.45c-.14-.69.59,1,.33,0C115.12,125.53,114.55,124.61,114.8,125.45Z"/><path class="cls-11" d="M187,97.9l-.1-.27A1.79,1.79,0,0,0,187,97.9Z"/><path class="cls-11" d="M115.13,125.42h0l0-.1Z"/><path class="cls-11" d="M124.2,82.68a.46.46,0,0,0,.16-.06S124.3,82.62,124.2,82.68Z"/><path class="cls-11" d="M133.74,76.21l-.26.12A1.62,1.62,0,0,0,133.74,76.21Z"/><path class="cls-11" d="M120.35,87.29a1.59,1.59,0,0,0-.27.33l.06,0A.8.8,0,0,1,120.35,87.29Z"/><path class="cls-11" d="M117,92.52l.09-.09.08-.18Z"/><path class="cls-11" d="M183.75,130.53a.94.94,0,0,1,.26-.17C183.87,130.39,184.3,129.61,183.75,130.53Z"/><path class="cls-11" d="M187.12,98.05a.21.21,0,0,1-.12-.15l.07.19S187.12,98.1,187.12,98.05Z"/><path class="cls-11" d="M121.13,88.21l-.59.75C120.71,88.75,120.93,88.48,121.13,88.21Z"/><path class="cls-11" d="M146.8,148.73H147A.94.94,0,0,0,146.8,148.73Z"/><path class="cls-11" d="M119,91.35a3.7,3.7,0,0,0-.37.41.25.25,0,0,0,0,.12Z"/><path class="cls-11" d="M184,130.36Z"/><path class="cls-11" d="M186.44,124.5c-.32.85,0,.47.07.69-.39,1-.34.42-.58.72a7.6,7.6,0,0,0-.24.9,3.15,3.15,0,0,1-.27.75s-.1.11-.08,0c-.16.73-1,1.91-1.23,2.74a.37.37,0,0,1-.1.07c.16-.07.26,0,.3,0-.21.36-.29.73-.49.79a.73.73,0,0,0,.14-.38l-.18.4c-.37.24.25-.54.13-.61l-.58,1.19a8.21,8.21,0,0,1-.62,1c-.23,0,.8-1.29.18-.67.21-.26.41-.53.6-.8-.64.5.33-.51-.29-.07-.36.55-.57.85-.75,1.17a7.54,7.54,0,0,1-.78,1.14c-.1.29.18,0,.08.3a2.86,2.86,0,0,1-1.09,1.19,1.93,1.93,0,0,0-.85.9,2,2,0,0,1-.82,1.23l.07-.38c-.87.92-.28.73-1.32,1.59.11-.23.66-.76.51-.64-.73.49-.35.51-.83,1l-.22,0A40.28,40.28,0,0,1,174,141.6c0-.09.2-.29-.11-.12a20.9,20.9,0,0,1-2.43,1.69,27.43,27.43,0,0,1-2.58,1.32l-.54.46c-.15.08-.31.07-.16,0-.67.25,0,.1-.27.31s-.52.14-.31,0a16.17,16.17,0,0,1-4.5,1.94l.23-.13c-1,.26-1,.65-2,.79l.17-.08a26.34,26.34,0,0,1-6.33,1c-.3.26-2.21.1-2.34.39-1.28-.11-.92-.16-2.71-.29-.48,0-.72.16-1.32.16v-.16L148,149c-.14-.07-.27-.16-.41-.24l-.55,0c.21,0,.46.13.42.17a7.07,7.07,0,0,1-1.38-.2,2,2,0,0,1-.72-.27c-.68-.06-1.37-.13-2-.24a2.49,2.49,0,0,1,.67,0c-1.11-.06-.16-.21-1.17-.27.12.07-.09.08-.12.11a20.82,20.82,0,0,0-2.39-.7l.18-.06a45.37,45.37,0,0,1-4.61-1.65c.54.29.33.41-.14.23l-.11-.24c-.35,0,.45.27-.22.13-.57-.3-.3-.37,0-.26l-.72-.29c0-.06.16,0,.23-.05-.34,0-1.13-.73-1.61-.8v-.06l-1-.54-.8-.46c-.5-.29-1-.55-1.54-1-.11.11-.54-.23-.95-.36l-1.24-1.06c-.43-.37-.86-.78-1.34-1.17-.7-.51-.27-.07-.62-.26,0-.15-.88-1-.34-.61-.56-.48-.89-.82-1.27-1.18l-.63-.59c-.24-.22-.5-.49-.84-.82.1.19.23.37.12.32-.25-.24-.48-.62-.4-.63l.07.06a13.76,13.76,0,0,1-2.06-2.73c-.32-.49-.59-1-.87-1.43q-.21-.34-.42-.63a4.77,4.77,0,0,0-.41-.54l.06.07c-.33-.47-.69-.93-1-1.43-.35-.72.32.38.12-.19-.27-.38-.49-.74-.69-1.08s-.32-.68-.46-1c-.29-.64-.51-1.26-.87-1.95a6.48,6.48,0,0,0-.27-1.17c-.13-.46-.34-1-.51-1.48s-.35-1.07-.49-1.58a9.71,9.71,0,0,1-.25-1.4l-.07.11c-.19-.38-.07-.5-.11-.8-.06,0,0,.46-.09.21a26.93,26.93,0,0,1-.72-5.36,39.56,39.56,0,0,1,.19-5.45c.12-1.31-.41-.79,0-2.43l.12.5a34.82,34.82,0,0,1,1.69-7.87,1.56,1.56,0,0,1,0,.43,5.88,5.88,0,0,0,.62-2c.17-.37.12-.05.27-.26.29-.47.39-1.34.64-1.55,0,0,0,.15-.06.25.09-.35.74-1.5.46-1.26.24-.43.46-.84.66-1.24a7,7,0,0,1,.63-1.08c.13-.52.94-1.39.85-1.64.16.19,1.11-1.32,1.42-1.87-.07.21.38-.39.32-.13.41-.57.8-1.09.62-1.07,1-.83,1.56-2.14,2.33-2.42a31.66,31.66,0,0,1,4.29-4.11c.05.12-.38.42-.76.75s-.76.64-.65.71c.33-.3.62-.58.9-.85l.81-.72a13,13,0,0,1,1.86-1.36c.4-.23-.16.23-.27.35a23,23,0,0,1,2.19-1.4c.75-.39,1.45-.81,2.16-1.19a1.44,1.44,0,0,1-.28.2c.28-.14.67-.28.6-.36l-.27.15c-.53.08,1-.83,1-.93-.37.49,1.5-.53.86.16.19-.1.41-.25.34-.3.29-.1.39-.09.14.1a10.84,10.84,0,0,1,1.58-.77s-.18.14-.26.23a5.56,5.56,0,0,1,1.76-.75s.07.06-.18.13c.71-.22,1.3-.47,1.92-.67a9.43,9.43,0,0,1,2.09-.5c-.43.31.56,0,.68.15.28-.08.56-.14.85-.2l-.36,0a20.08,20.08,0,0,1,2.08-.35c-.19,0-.37.09-.56.15.48-.08,1-.12,1.43-.18h-.82c.77-.17-.11-.25.93-.28a6.67,6.67,0,0,1,1.18,0h0a5.1,5.1,0,0,1,1.34-.13c.15.06-.11.23,0,.26.38-.16,1.81,0,2.29-.18-.16,0-.17.14-.12.16l.32-.11c.35.06.4.09.34.17,1.07.09-.32-.28.94-.09a1.25,1.25,0,0,1-.26,0,36.05,36.05,0,0,1,3.63.44c.31.25-1-.12-.66.11a28.1,28.1,0,0,1,5.06,1L162,74.3c.3-.2,1.13.49,2,.64-.19-.06-.3.06-.24,0,.52.22,1.06.4,1.68.6s1.3.45,2.09.77l-.22,0c.56.36,1.56.78,2.16,1.17.22,0,.58.25.41,0,1.71,1.43,3.72,2,5.07,3.51-.19-.14-.48-.28-.33-.17.46.3.89.66,1.33,1,0-.18-.12-.19-.33-.49a4.4,4.4,0,0,1,.93.6c-.63-.41-.11.15.08.42,0-.06.09,0,.1-.06.5.75.27-.09,1.05.83h-.09a7.54,7.54,0,0,1,1,.87c0,.25-.38-.29-.49-.23.48.48,1.15.76,1.45,1.32-.22-.19-.5-.5-.74-.67a5.65,5.65,0,0,0,.73,1l0,0,.71.9-.16-.25a3,3,0,0,1,1,.89c.15.18.3.37.47.56a5.12,5.12,0,0,0,.56.6c-.84-.76-.22-.07-.39,0,.13.26.35.64.24.57.43.35.44.78,1,1.3,0,.06.31.48.13.45.42.56,0-.18.08-.17.74.81,1.14,2.26,2.06,3.51.35.57.57.91.79,1.23a7.07,7.07,0,0,1,.72,1.19c.08.42-.3-.24-.3-.24a9.75,9.75,0,0,0,.67,1.69c-.08-.1-.07,0-.06.24.18.48.29.26.44.92a2.29,2.29,0,0,1-.37-.41l.39.81c.12.28.25.56.36.86,0,.18-.24-.32-.36-.52a11.61,11.61,0,0,0,.77,1.89l-.05-.45c.06.25-.09.16-.16,0-.28-.55-.2-.85-.16-.89l.16.41a2.08,2.08,0,0,0-.25-1.15c-.19-.47-.48-1-.61-1.39l.33.28-.48-.81c0-.2.06-.37.24,0-.12-.64-.29-.5-.38-1.06,0-.06,0,0,.05,0l-.31-.56c.09.09.11-.16.23.21a4.9,4.9,0,0,0-.58-1.27A2.13,2.13,0,0,1,186,94l.06.08c-.77-1.38-.21-.07-.92-1l0-.9-.21-.05c-.08-.15-.23-.43-.14-.41-.41-.46,0,.12-.28-.12a7.54,7.54,0,0,0-.68-1.22c-.26-.39-.46-.71-.41-.86-.25-.16.34.68-.19,0,0-.18-.1-.37-.29-.6a4,4,0,0,1-.62-.81c.25.09.59.68.27,0a1.76,1.76,0,0,1-.61-.71,6.7,6.7,0,0,0-.61-.88c-.09,0-.31-.19-.6-.54s-.67-.77-1-1.13a22,22,0,0,0-1.89-2.15h0c-.27,0-.94-.68-1.52-1.1.1-.07.23,0,.55.19-.16-.15-.34-.29-.51-.43a2.54,2.54,0,0,1-.69-.42h.22a12.3,12.3,0,0,0-1.12-.79c-.41-.26-.81-.57-1.26-.92-.13.07.53.81-.51.21,0-.08,0-.21.31-.06a2.22,2.22,0,0,1-.49-.3l.47.17c-.4-.34-.28-.07-.62-.31.07-.08-.21-.23-.12-.27a4.47,4.47,0,0,0,.43.3,8.41,8.41,0,0,1-.93-.81c0,.07-.08.12-.37-.05-.76-.46-.2-.27-.61-.59-.22-.05-.68-.39-.77-.26a.73.73,0,0,1-.3-.3c-.22-.08-.69-.34-1.07-.51s-.66-.27-.46-.08l.1.06-.07,0h0a10.69,10.69,0,0,1-1.05-.45l-1.06-.5a16.16,16.16,0,0,0-2.12-.89l0,0c-.42-.14-.9-.27-1.35-.4a6,6,0,0,0-1.19-.26c-.25-.07-.57-.26-.44-.29a11.9,11.9,0,0,1-1.7-.4c.69,0-.21-.13.7.08a7,7,0,0,0-2-.41c.35-.08-.63-.28-1.05-.31l.6.2c-.47-.06-.88-.14-1.29-.22l.25-.13c-1.8-.46-3.3,0-4.67-.38-.48.11,1,.1.55.24-.83,0-1.7-.31-2-.31-1.16,0-1.07.28-2.27.3.16,0,.31.2-.57.34s-1-.18-.52-.27c.2,0,.3,0,.29,0,.27,0,.62-.11.28-.15l-.1.08c-.21,0-.6,0-.91,0s-.53,0-.4,0c-.62.14-.26.14.21.1a26.81,26.81,0,0,0-2.76.37c.18,0,.35,0,.18.07-1.61.24-.69.23-1.74.51-.63.06.16-.28-.9.07-.67.09-.18-.13.07-.25a5,5,0,0,1-.7.21,5.59,5.59,0,0,1-.65.16c-.41.08-.77.13-1.06.21l.5-.2c-.3.12-.55.19-.8.27.11,0,.22,0,.33,0-.31.06-.56.16-.57.11-.28.18.3.12-.27.43-.41.09-1.17.48-1.35.39,1.24-.4-.2-.11.83-.51a5.58,5.58,0,0,1-.74.26c-.05,0,0-.05.1-.09-1.22.33-.46.4-1.67.89.12-.16-.35,0-.53.06.48-.22.29,0-.11.31a7.32,7.32,0,0,0-1.2.61l.47-.18a5.14,5.14,0,0,1-1,.62c-.08,0,.44-.29.25-.22-.49.46-1.38.51-2.09,1.09-.39.16-.12-.13-.46,0-.81.61-1,.47-1.83,1.14.33-.07.35-.12-.2.39l1.4-1-.83.77c.44-.29.87-.69,1.16-.83-.4.37-.36.32-.1.27-.69.24-1.13.86-1.86,1.24l-.17-.27a8,8,0,0,0-1.41,1.08,19.58,19.58,0,0,1-1.55,1.37c.15-.1.28-.21.43-.3-.09.23-.73.68-1.09,1.06,0-.11-.3.08-.51.19.07,0-.85.83-.81,1.08-.2.14-.41.27-.61.42-.92.93-.8,1.29-1.61,2.23.15-.36-.27,0,.2-.67-.26.32-.52.6-.47.65a2.85,2.85,0,0,0-.43.58,3.06,3.06,0,0,1-.49.67,1.44,1.44,0,0,1-.31.65s0,0,0,0-.37.63,0,.37c-1,.86-2,3-2.71,3.86-.43.81-.86,1.82-1.21,2.57,0-.06,0,0,0-.16-.54,1,0,.76-.61,1.92-.39.55.17-.68,0-.32-.39,0-.53,1.48-1,2.25l.05-.21a17,17,0,0,0-.69,2.65s0-.06,0,0c0,.76-.28,2.16-.41,3.2-.08-.35,0-.49-.16-.31-.06.46.24-.1.12.83-.12.29-.3,1-.45,1,0-.3.09-.59.13-.88-.27.42-.16,1.14-.24,1.6l-.08-.07c-.14,1.36.1,1.4,0,2.86l.07-.15c.16.8-.13.66,0,1.46l-.21.24c0,.27.07.73.14,1.24s.13,1.07.19,1.54a15.43,15.43,0,0,1-.42-2.31,11.46,11.46,0,0,0,.19,2.05,3.14,3.14,0,0,1-.07-.68,13.44,13.44,0,0,1,.43,2.49c-.44-.13.25,2.7.13,3.5.51,1.78.75,3.6,1.52,5.63,0-.82.22.6.48.36a3.43,3.43,0,0,1,.26.68l.4,1.48c.06.37-.25-.41-.3-.34.42,1,.07.48.29,1.18,0-.18.32.28.55.87l-.25-.87c.8,1.32.36,1.32,1.23,2.62l-.32-.39a14.27,14.27,0,0,0,2.16,3c0,.13.08.34-.13.06,1,1.61,2.74,3.24,3.64,4.41l-.16,0a4,4,0,0,1,.78.73s-.16,0,0,.07a7.5,7.5,0,0,1,1.06.94l-.34-.22a10.4,10.4,0,0,0,1.74,1.53c.57.37,1.11.71,1.73,1.18-.14.17,1,1.14,1.55,1.57l0,0a26.46,26.46,0,0,0,5,2.66c1,.82,3.78,1.86,5.65,2.58-.28-.14.11-.16.45-.08s1.29.2,1.16.39l-.16-.05a5.11,5.11,0,0,0,2,.66l.18-.25a11.12,11.12,0,0,0,3.37.71l1.63.13a4.06,4.06,0,0,1,1.13.21c.48,0,1.07,0,1.54-.09l0,.15c.65,0,1.15,0,1.68,0s1.11,0,1.92-.12l-.32.14c.92-.08,1.12-.53,1.95-.63l.28.19c.79-.12,1.6-.17,2.39-.31.4-.07.79-.13,1.18-.23a10.79,10.79,0,0,0,1.14-.36s-.05.11-.3.18c.75-.14,2.86-.64,2.51-.86.08.21,1.57-.5,2.34-.89l-.07.19a6.06,6.06,0,0,1,1.52-.94c.23-.08.25,0-.06.11.76-.25.5-.38,1.42-.72l-.29.24a2.51,2.51,0,0,0,1-.66,4.23,4.23,0,0,1,1.57-.65,2,2,0,0,1,.82-.67c.08,0,0,.13-.12.19a7.29,7.29,0,0,0,1.39-.9,6.17,6.17,0,0,1,1.11-.75s.11,0,.18,0c-.9.63-1.65,1.09-1.58,1,.07.12.82-.35.34.2.27-.25.62-.58,1-.91a8.3,8.3,0,0,1,1.13-.92l.12,0-.06.07a2.51,2.51,0,0,0,.42-.35,5.06,5.06,0,0,0,.58-.42,4.73,4.73,0,0,0,1.17-.88c-.13-.09.32-.46-.16-.19.05,0,0,.07-.27.27a.89.89,0,0,0-.14.13l0,0-.84.7a2.82,2.82,0,0,1,.89-.8c.11-.22.23-.47.3-.59.59-.24,1.52-1,1.72-1,.45-.51,1-1.07,1.47-1.65.23-.28.45-.56.63-.81A4.26,4.26,0,0,0,181,136a.91.91,0,0,1,.47-.36,3.51,3.51,0,0,0-.33.5c.45-.62,1.38-1.8,1.33-2.06.65-.72-.17.55.58-.55l-.05.19a11.11,11.11,0,0,0,1.07-1.47c.27-.49.5-1,.74-1.48a20.87,20.87,0,0,1,1.69-3.25,1.31,1.31,0,0,1-.21.28,24.56,24.56,0,0,0,1.06-2.26c.28-.8.59-1.58.82-2.4.52-1.6.87-3.24,1.34-4.81a4.4,4.4,0,0,0,.1-1.59l.19-.17c0-.33-.05-.65-.07-1a5.87,5.87,0,0,1,.11-1c.06-.31.12-.61.18-.93a9.19,9.19,0,0,0,.15-1,5.4,5.4,0,0,0-.05-1.18l-.11.23c0-.31,0-.8,0-1.2s0-.71,0-.66a.68.68,0,0,1-.07-.45l.08,0c-.06-.5-.14-1-.24-1.51-.05-1.18.37.16.19-1.57-.12-.63-.49-1.77-.51-1.52s0,.66-.05.69l-.12-.57c-.26-.07-.57-.46-.55,1l.29,1-.09.33c0-.28-.07-.55-.11-.82a2.44,2.44,0,0,0,.18,1.08.86.86,0,0,0-.1.42l.32,1c-.09.12-.21-.42-.24.22.13.45.2-.44.3.3-.09.48-.19.34-.07.89-.06.08-.11,0-.14-.25a14,14,0,0,0,.18,1.54,4.4,4.4,0,0,0-.08,1c0,.34-.05.62-.17.59a6.09,6.09,0,0,1,.11,1.32c-.2-.84-.19,1.68-.48,1.42a4.13,4.13,0,0,1,0,1.47c0,.3-.09.61-.14.92s-.1.6-.12.87a.63.63,0,0,1,0-.27,9,9,0,0,1-.39,1.11c.19.12,0,1,0,1.57-.39.67-.12-.5-.37-.32.09,0,.05.32,0,.62s-.1.56,0,.46c-.29.5-.21.45-.46.67.21.18-.11.52-.13,1-.41.73-.31.11-.55,1C186.25,125.28,186.44,124.5,186.44,124.5ZM174,141.65h0l.36-.27Zm-1.47,1,.65-.44c.08,0,.06.1-.09.19C173.16,142.37,172.79,142.58,172.54,142.7Zm3.73-1.51c-.22.2-.31.24-.36.25l.38-.34,0,0A.24.24,0,0,1,176.27,141.19Z"/><path class="cls-11" d="M176.55,140.71l.08-.09-.15.09,0,.1Z"/><path class="cls-11" d="M168.5,76.36l0,0s.05,0,.06,0Z"/><polygon class="cls-11" points="148.81 148.84 148.81 148.88 148.97 148.85 148.81 148.84"/><path class="cls-11" d="M176.56,82.39s0,.06.07.12A.61.61,0,0,0,176.56,82.39Z"/><path class="cls-11" d="M179.6,85.46,180,86A6.07,6.07,0,0,0,179.6,85.46Z"/><path class="cls-11" d="M181.67,88.06a.16.16,0,0,0,.09,0h-.09Z"/><path class="cls-11" d="M134.4,77l-.12.06C134,77.23,134.21,77.12,134.4,77Z"/><path class="cls-11" d="M149.41,72.78a4.17,4.17,0,0,1-.51.09C149.19,72.87,149.4,72.87,149.41,72.78Z"/><path class="cls-11" d="M121.2,88.12h0l-.07.09Z"/><path class="cls-11" d="M148.18,72.93a3.12,3.12,0,0,0,.72-.06A5.83,5.83,0,0,0,148.18,72.93Z"/><path class="cls-11" d="M187.93,100.9l0,.16s0,0,0,0Z"/><path class="cls-11" d="M188,101.07l.06.17C188,101.16,188,101.09,188,101.07Z"/><path class="cls-11" d="M188.18,101.59l-.13-.35A1,1,0,0,0,188.18,101.59Z"/><path class="cls-11" d="M186.58,96.73l-.07,0A.09.09,0,0,0,186.58,96.73Z"/><path class="cls-11" d="M186.05,95.5a11.8,11.8,0,0,0,.4,1.18l.06,0C186.35,96.54,186.26,95.74,186.05,95.5Z"/><path class="cls-11" d="M184,90.24c.19.33.37.66.55,1-.05-.2-.12-.47.16,0C184.1,89.89,184.74,91.53,184,90.24Z"/><path class="cls-11" d="M182,87.3c.39.48.06,0,.11,0C181.85,87,181.78,86.91,182,87.3Z"/><path class="cls-11" d="M161.1,73.44l.1-.11C160.73,73.22,161.18,73.38,161.1,73.44Z"/><path class="cls-11" d="M156.22,73.19l.44.15.23-.09C156.67,73.22,156.44,73.2,156.22,73.19Z"/><polygon class="cls-11" points="153.46 71.97 153.66 71.96 152.87 71.96 153.46 71.97"/><path class="cls-11" d="M117.37,91.48l.22,0C117.73,91.15,117.6,91,117.37,91.48Z"/><path class="cls-11" d="M112.33,109.19a1.94,1.94,0,0,0-.08,1C112.26,109.81,112.33,109.4,112.33,109.19Z"/><path class="cls-11" d="M143.81,149.56l-.38,0c.24,0,.47.07.71.09Z"/><path class="cls-11" d="M171.28,97.77s0-.08-.07,0l0,.09Z"/><path class="cls-11" d="M170.83,97.68c-.07,0-.14.14-.08.21.06-.09.08-.06.14-.17s.12,0,.11,0,.1,0,.13-.06a.26.26,0,0,0-.3,0S170.82,97.7,170.83,97.68Z"/><path class="cls-11" d="M164.66,98.56h0S164.68,98.55,164.66,98.56Z"/><path class="cls-11" d="M160.85,99.13s0,0,0,0Z"/><path class="cls-11" d="M160.19,99.15h0S160.19,99.14,160.19,99.15Z"/><path class="cls-11" d="M164.66,98.56l-.1,0S164.61,98.56,164.66,98.56Z"/><path class="cls-11" d="M170,98l.06,0h0Z"/><path class="cls-11" d="M166.33,98.21h0l0,0Z"/><path class="cls-11" d="M167.61,98s0,.08,0,.11a.09.09,0,0,1,.06-.06S167.63,98,167.61,98Z"/><path class="cls-11" d="M169.68,97.78l0,0Z"/><path class="cls-11" d="M165.41,98.34l0,0A0,0,0,0,0,165.41,98.34Z"/><path class="cls-11" d="M129.49,104.83h0S129.48,104.83,129.49,104.83Z"/><path class="cls-11" d="M127.94,104.71h0v0Z"/><path class="cls-11" d="M159,99.25h0S159,99.24,159,99.25Z"/><path class="cls-11" d="M148.08,101.1c.13,0-.19.12,0,.16C148.06,101.23,148.24,101.12,148.08,101.1Z"/><path class="cls-11" d="M170,98h0Z"/><path class="cls-11" d="M148.09,101.26Z"/><path class="cls-11" d="M156.25,99.74l0,0S156.27,99.75,156.25,99.74Z"/><path class="cls-11" d="M158.31,99.51h0Z"/><path class="cls-11" d="M155.21,100s0,0-.08,0h0A.08.08,0,0,1,155.21,100Z"/><path class="cls-11" d="M154.1,100.2h0Z"/><path class="cls-11" d="M132.84,104.24a.17.17,0,0,1-.06-.06S132.64,104.28,132.84,104.24Z"/><path class="cls-11" d="M170,98s0,0,0,0h0S170,98,170,98Z"/><path class="cls-11" d="M155.26,100.61l-.18,0Z"/><path class="cls-11" d="M140.75,102.93h0Z"/><path class="cls-11" d="M154.56,100.72a.2.2,0,0,0-.11,0s0,0,0,0Z"/><path class="cls-11" d="M132.78,104.18Z"/><path class="cls-11" d="M131.65,104.55c.17,0,.06-.11.09-.17.19-.06.1.05.18.09s.2-.15.29-.16,0,0,0,0,.39-.07.53-.19l0,0a.18.18,0,0,1-.05-.13c.07,0,.13-.08.17,0s-.05,0-.07,0l.08,0c.08.08-.1,0-.09.12a1.17,1.17,0,0,1,.43-.15c0,.08-.27.07-.1.13H133c.16.12-.12,0,0,.14s.26-.09.5-.1c0-.06,0-.07,0-.13.33-.15.31.18.54,0,.05-.07.06-.19.24-.16l0,.11c.23,0,.11-.16.36-.14,0,0-.18.07-.14.07s.1-.07.22-.09l0,.08c.25-.05.51-.16.78-.22,0,0-.06.06,0,.08a4,4,0,0,1,1.08-.11l.11-.1s.06,0,0,0c.14,0,0,0,.06-.09s.1,0,.06,0a1.92,1.92,0,0,1,.88-.2l0,0c.19,0,.18-.19.37-.15l0,0a5,5,0,0,1,1.17-.11c0-.12.41,0,.41-.18a1.78,1.78,0,0,0,.52.08c.09,0,.11-.12.22-.15l0,.08.13-.11.09.08.1,0s-.09,0-.09,0a.47.47,0,0,1,.41,0l.36-.13s-.07.06-.11.08c.18-.11.05.08.22,0,0,0,0,0,0-.07a.94.94,0,0,0,.45-.05l0,.07c.28,0,.58-.13.89-.18-.11,0-.1-.11,0-.13l.05.08c0-.06-.1,0,0-.1s.09.08,0,.12l.13,0s0,0,0,.08.26,0,.33-.07v0c.31,0,.45-.1.7-.15,0-.07.1-.07.16-.15a3.4,3.4,0,0,0,.63,0c.15-.07,0-.07.1-.13s.24,0,.14.09a4,4,0,0,0,.67-.18s-.09,0-.07,0,.15,0,.14,0h0c.36-.17.91,0,1.19-.14h0l.3-.13c.15,0-.08.07,0,.09.32-.17.54-.07.81-.19.24.16.76-.14,1.08-.07l0,0c.07-.06.1,0,.15,0s-.08,0,0-.06a13,13,0,0,1,2-.21c.24,0,.09-.27.42-.21l-.08.1c.47-.18,1-.16,1.46-.32,0,0,0,0-.07.06.11,0,.37-.06.36-.11s0,0,.08.06.24-.12.3-.07,0,0,0,0,.3,0,.23-.1c.18,0,.34-.09.48-.07s.32,0,.33-.13c0,.12.32,0,.43,0s.1,0,.07.08c.12,0,.24-.07.21-.12.26.1.45-.2.62,0,.37-.12.72-.23,1-.31,0,.12-.37.07-.34.2a2.79,2.79,0,0,1,.82-.26c.09,0,0,.06-.07.08.32-.1.64-.09.92-.2,0,0,0,0-.06,0s.13,0,.12-.06l-.05,0c-.11-.06.2-.2.2-.24-.07.17.29,0,.17.21,0,0,.08-.05.06-.08s.08,0,0,.07c.2-.06.12-.11.31-.14,0,0,0,0-.05.08a.48.48,0,0,1,.33-.14s0,0,0,0c.27-.05.44-.21.74-.21-.07.13.11,0,.14.12l.15-.06-.07,0c.14,0,.25-.12.38-.1l-.1,0,.26-.06h-.16c.13-.08,0-.12.16-.13,0,0,.14,0,.22,0h0a.34.34,0,0,1,.23-.08s0,.11,0,.13.32-.08.39-.18a.09.09,0,0,0,0,.09l0-.08c.07,0,.08,0,.08.06.19,0-.08-.11.15-.1,0,0,0,0,0,0,.24,0,.44-.12.66-.12s-.18,0-.1.13a6.65,6.65,0,0,1,.92-.25h-.06c0-.15.23,0,.37-.06,0,0,0,.08,0,.07a4.18,4.18,0,0,0,.71-.2l0,0a3.58,3.58,0,0,0,.45,0s.1,0,.05-.09c.43.14.74-.23,1.12-.12,0,0-.09,0-.06,0l.3-.08c0-.06,0,0-.12-.07a.38.38,0,0,1,.19-.1c-.13.07,0,.1.08.13s0,0,0-.06c.18.08,0-.13.24-.09v0a1.09,1.09,0,0,1,.23-.09c.05.07-.08,0-.07.11s.22-.17.34-.12c-.05,0-.13,0-.17.07a.33.33,0,0,0,.23,0h.2l0,0c.12-.21.3-.08.49-.24-.18.15,0,.08,0,.16s.14,0,.12,0,.17,0,.29-.09.11,0,.1,0,0,0,0-.07c.18-.12.47,0,.73-.14s.26-.18.48-.26,0,.1,0,.1a.53.53,0,0,0,.33,0s0,0,.05.06,0-.1.17-.08a.52.52,0,0,1-.07.12,3,3,0,0,1,.31-.15s-.06.08-.09.11c.12,0,.32-.09.34-.17h-.08s0,.06,0,.07-.16,0-.17,0l.08,0c-.11-.14-.32.08-.48.1l.05-.12-.15.11s-.08-.08,0-.11c-.12,0-.1.06-.2,0s0,0,0,0l-.11,0s0-.08,0-.07c-.21,0-.31.13-.4.06h0c-.27.09,0,.09-.21.22l-.17-.18v.09s-.09,0-.09,0,0,0,0,.09-.38.1-.43,0c0,.07.14,0,0,.09-.06-.13-.17.05-.3,0,0-.08.15-.06,0-.1-.06.13-.25,0-.35,0s-.23.08-.41.14a4.17,4.17,0,0,0-.52,0v0c0,.1-.2.11-.32.16a.12.12,0,0,1,.08-.13l-.12,0s-.06.06-.13.08l0-.07a1.89,1.89,0,0,1-.52.12c0,.07.19.16,0,.24a.08.08,0,0,1,0-.12s-.06,0-.1,0l.07-.07c-.09,0,0,.06-.11.06s-.06,0-.06-.07.07,0,.1,0-.2,0-.23,0,0,.07,0,.09-.07-.05-.16-.06-.14,0-.13.1-.06,0-.08,0-.38.07-.28.14h0c-.25.12-.56,0-.82.12v0a1.83,1.83,0,0,0-.45.15c-.05,0-.12,0-.1-.07a.55.55,0,0,1-.31.06c.11-.07-.05,0,.12,0-.16,0-.2,0-.36.06.05-.07-.13-.06-.21,0l.12,0-.23,0,0-.1c-.34-.05-.55.28-.83.14-.07.08.18,0,.12.1s-.33-.09-.37-.08c-.21,0-.17.16-.39.16,0,0,.07.1-.08.16s-.2-.1-.11-.14,0,0,0,0,.11,0,0-.07v0c-.08,0-.28,0-.24,0-.11,0,0,.06,0,.07a2.83,2.83,0,0,0-.5.05s.07,0,0,0c-.29,0-.11.08-.31.13s0-.12-.16,0,0-.08,0-.11a.75.75,0,0,1-.44,0l.09,0-.15,0,.06,0s-.1,0-.1,0,.06.1-.05.17-.21.07-.25,0c.23,0,0-.08.15-.13a.3.3,0,0,1-.14,0s0,0,0,0c-.23,0-.09.11-.32.14,0,0-.06-.08-.1-.06s.06.07,0,.12-.16,0-.23.06h.09c0,.06-.1.06-.2.09s.09,0,.05,0-.27,0-.42,0,0-.08-.09-.1-.2,0-.38.05c.06.06.07,0-.05.12l.3-.09-.18.12c.09,0,.19-.07.24-.07s-.08,0,0,.1c-.15-.08-.25.09-.4,0l0-.15c-.24,0-.38.14-.67.15h.09c0,.07-.17,0-.26.08s-.06-.06-.11-.09-.21,0-.22.14l-.14,0c-.23,0-.24.19-.46.21.06-.07-.05-.09.09-.15-.07,0-.14,0-.14,0s-.19.1-.27.06,0,.09-.11.1,0,0,0,0-.13.06-.05.1c-.25-.12-.63.12-.85,0l-.5.13s0,0,0,0c-.21,0-.1.17-.34.15s.12-.06,0-.08-.27.07-.45,0h0c-.13,0-.28.11-.48.13,0,0,0,0,0,0a1.63,1.63,0,0,1-.55.24c.05-.08.08,0,0-.11s0,.1-.12.15-.19,0-.22-.11l.16,0c-.1-.08-.2,0-.29,0v0c-.24,0-.22.16-.48.19l0,0c-.13.12-.13,0-.26.06l-.06-.1a3.15,3.15,0,0,1-.47.2,1.57,1.57,0,0,1,.38-.22c-.09,0-.31,0-.35.11s.08,0,.12,0a.79.79,0,0,1-.43.2c0-.21-.49,0-.65-.11a5.2,5.2,0,0,1-1,.15c.16.14-.11,0-.06.18s-.12,0-.13,0l-.29-.05c-.07,0,.08,0,.07-.09-.2,0-.1-.05-.23-.07,0,0-.06.09-.17.09l.17,0c-.26.13-.26-.1-.52,0l.08-.06c-.14,0-.52.08-.63.23,0,0-.07,0,0-.07-.34,0-.73.26-1,.22l0,0c-.06,0-.1.09-.18.06s0,0,0,0a.48.48,0,0,1-.24.09l.06-.06c-.34,0-.48.19-.75.26,0-.11-.29-.11-.42-.1v0a5.78,5.78,0,0,0-1,.3,6.62,6.62,0,0,0-1.12.06c.06,0,0,.09,0,.12s-.22.11-.22,0h0c-.08-.09-.25,0-.38,0v.15c-.38-.15-.89.22-1.11.07-.08,0-.18.06-.26.11v-.07a4.14,4.14,0,0,0-.63.09l.05-.06c-.17,0-.17.25-.32.28l-.06-.11a2.41,2.41,0,0,0-.85.15.08.08,0,0,1,.05-.07c-.13,0-.52,0-.45.16,0-.1-.29,0-.44.1v-.07a.47.47,0,0,1-.29.19s0,0,0,0c-.15,0-.1.09-.28.08l.06-.06c-.15,0-.13,0-.21.11s-.28,0-.31,0a.17.17,0,0,1-.17.11s0,0,0,0c-.26,0-.35.14-.53.1,0,0,0,0,0,0l.34,0c0-.06-.17,0-.06-.16a1.12,1.12,0,0,1-.47.21l0,0h0l-.1,0h-.13s-.18,0-.26,0-.08.08,0,.13,0,0,.07,0h0l.2,0a.2.2,0,0,1-.21.06,1.16,1.16,0,0,1-.09.14c-.12-.08-.34-.11-.38-.16-.23.08-.55.12-.68.28s-.09,0-.11-.05.08,0,.1,0c-.13.06-.4.08-.42.19-.18,0,.08-.11-.15,0l0,0c-.49-.08-.71.37-1.25.26a.08.08,0,0,1,.06,0c-.6,0-1.19.28-1.79.24-.16,0-.17.06-.26.12l-.05-.07-.16.12c-.23.11-.45-.12-.73,0l0,0c-.11,0-.34.09-.33,0s0,.07-.07,0v0l-.26.12c-.22,0,0-.17-.3-.13-.12,0-.31.18-.26.2s.12,0,.13,0l-.1,0c0,.13-.06.27.21.31l.17-.11.06,0-.15,0c.1,0,.14,0,.2-.06a.16.16,0,0,0,.08.06l.16-.15s-.06.11.06.12-.1-.1,0-.16.08.09.17,0,0,.05,0,.07.24,0,.27-.12.3-.07.31,0a.47.47,0,0,1,.22-.14c-.12.16.31,0,.29.11.09-.14.39-.12.58-.22,0,0,0,0-.05,0a1.2,1.2,0,0,1,.23,0c0-.11.16-.16.24-.24.15.08-.06.14,0,.23,0-.09.22-.13.16-.19.12,0,.1,0,.16.09,0-.13.1,0,.17-.13s.06.12.21,0S131.65,104.55,131.65,104.55Zm3.86-.87h0l-.08,0Zm.33-.05-.14,0s0-.05,0-.06S135.79,103.61,135.84,103.63Zm-.78-.4c.05,0,.07,0,.08,0l-.09,0h0Z"/><path class="cls-11" d="M135,103.34h0v0Z"/><path class="cls-11" d="M164.71,98.56h0Z"/><polygon class="cls-11" points="140.39 103.02 140.39 103 140.36 103.03 140.39 103.02"/><path class="cls-11" d="M166.56,98.52h0Z"/><path class="cls-11" d="M167.34,98.4h0Z"/><path class="cls-11" d="M168,98.34v0h0Z"/><path class="cls-11" d="M158.43,100h0C158.35,100,158.39,100,158.43,100Z"/><path class="cls-11" d="M161.24,99.36l-.09,0S161.24,99.4,161.24,99.36Z"/><path class="cls-11" d="M155.28,100.61Z"/><path class="cls-11" d="M161,99.43l.13,0A.3.3,0,0,0,161,99.43Z"/><path class="cls-11" d="M170.55,98h0Z"/><path class="cls-11" d="M170.58,97.93h0S170.58,97.92,170.58,97.93Z"/><path class="cls-11" d="M170.68,97.89l-.07,0S170.66,97.91,170.68,97.89Z"/><path class="cls-11" d="M169.75,98v0Z"/><path class="cls-11" d="M169.51,98.09a.59.59,0,0,0,.23,0v0C169.71,98.12,169.56,98,169.51,98.09Z"/><path class="cls-11" d="M168.45,97.93l.21,0s-.1,0,0-.07C168.38,97.8,168.72,97.89,168.45,97.93Z"/><path class="cls-11" d="M167.82,98c.1,0,0,0,0-.06S167.73,98,167.82,98Z"/><path class="cls-11" d="M163.29,98.73v-.07C163.21,98.69,163.29,98.69,163.29,98.73Z"/><polygon class="cls-11" points="162.48 99.22 162.57 99.25 162.6 99.18 162.48 99.22"/><polygon class="cls-11" points="161.89 98.83 161.93 98.81 161.79 98.86 161.89 98.83"/><path class="cls-11" d="M154.29,100.11l0,.07S154.38,100.07,154.29,100.11Z"/><path class="cls-11" d="M151,100.73a.17.17,0,0,0-.19,0A.6.6,0,0,0,151,100.73Z"/><polygon class="cls-11" points="141.15 102.22 141.21 102.18 141.09 102.22 141.15 102.22"/><path class="cls-11" d="M174.53,117.56s0-.08-.06-.06l0,.1Z"/><path class="cls-11" d="M174.09,117.47c-.07,0-.14.14-.08.21.06-.1.08-.06.14-.18s.12,0,.11,0,.1,0,.13-.06a.28.28,0,0,0-.3,0S174.08,117.48,174.09,117.47Z"/><path class="cls-11" d="M167.92,118.34h0Z"/><path class="cls-11" d="M164.11,118.92s0,0,0,0S164.1,118.91,164.11,118.92Z"/><path class="cls-11" d="M163.44,118.93h0S163.45,118.92,163.44,118.93Z"/><path class="cls-11" d="M167.92,118.34h-.1S167.87,118.34,167.92,118.34Z"/><path class="cls-11" d="M173.27,117.81a.05.05,0,0,0,0,0l0,0Z"/><path class="cls-11" d="M169.59,118h0s0,0,0,0Z"/><path class="cls-11" d="M170.87,117.77s0,.08,0,.11a.09.09,0,0,1,.06-.06S170.89,117.79,170.87,117.77Z"/><path class="cls-11" d="M172.94,117.56h0Z"/><path class="cls-11" d="M168.66,118.13v0S168.66,118.12,168.66,118.13Z"/><path class="cls-11" d="M132.75,124.61h0S132.74,124.62,132.75,124.61Z"/><path class="cls-11" d="M131.2,124.5h0v0Z"/><path class="cls-11" d="M162.24,119h0S162.26,119,162.24,119Z"/><path class="cls-11" d="M151.33,120.89c.14,0-.18.11,0,.16C151.32,121,151.5,120.9,151.33,120.89Z"/><path class="cls-11" d="M173.24,117.81h0Z"/><path class="cls-11" d="M151.35,121.05Z"/><path class="cls-11" d="M159.51,119.53l0,0S159.53,119.54,159.51,119.53Z"/><path class="cls-11" d="M161.57,119.3h0Z"/><path class="cls-11" d="M158.47,119.81a.21.21,0,0,0-.08,0h0S158.43,119.8,158.47,119.81Z"/><path class="cls-11" d="M157.36,120h0Z"/><path class="cls-11" d="M136.1,124A.17.17,0,0,1,136,124S135.9,124.06,136.1,124Z"/><path class="cls-11" d="M173.27,117.77l0,0h0A0,0,0,0,0,173.27,117.77Z"/><path class="cls-11" d="M158.52,120.4h0Z"/><path class="cls-11" d="M144,122.71l0,0Z"/><path class="cls-11" d="M157.82,120.51a.2.2,0,0,0-.11,0,0,0,0,0,0,0,0Z"/><path class="cls-11" d="M136,124h0Z"/><path class="cls-11" d="M134.91,124.33c.17,0,.06-.1.09-.17.19-.06.1.06.18.1s.2-.15.29-.16,0,0,0,0,.39-.07.53-.19a0,0,0,0,1,0,0,.24.24,0,0,1,0-.13c.07,0,.13-.08.17,0s0,0-.07.06l.08,0c.08.08-.1,0-.09.12a1.43,1.43,0,0,1,.43-.16c0,.09-.27.08-.1.13h-.19c.17.11-.11,0,.05.13s.25-.08.5-.1c0-.06,0-.07,0-.13.33-.14.31.18.53,0,.06-.07.07-.18.25-.15l0,.11c.23,0,.11-.17.36-.14,0,0-.18.06-.14.07s.1-.08.22-.1l0,.09c.25-.06.51-.16.78-.23,0,0-.06.07,0,.09a4,4,0,0,1,1.08-.12l.11-.09s.06,0,0,0c.14,0,0,0,.06-.09s.1,0,.06.06a1.8,1.8,0,0,1,.88-.2l0,0c.19,0,.18-.2.37-.15l0,0a5.05,5.05,0,0,1,1.17-.12c0-.12.41,0,.41-.17a1.52,1.52,0,0,0,.52.07c.09,0,.11-.11.22-.15l0,.08.13-.11.09.09.1,0s-.09,0-.09,0a.47.47,0,0,1,.4,0l.37-.13s-.07,0-.11.08c.18-.11.05.08.22,0,0,0,0,0,0-.06a1,1,0,0,0,.46,0l0,.06c.28,0,.58-.12.89-.17-.11,0-.1-.11,0-.13l0,.08c.05-.07-.1,0,0-.11s.09.09,0,.13l.13-.06s0,0,0,.08.26,0,.33-.06v0c.31-.05.45-.1.7-.14,0-.08.09-.08.16-.15a3.44,3.44,0,0,0,.63,0c.15-.06,0-.07.1-.12s.24,0,.14.09a5.29,5.29,0,0,0,.67-.18s-.09,0-.07-.06.15,0,.14,0h0c.36-.16.91,0,1.19-.14h0l.3-.12c.15,0-.08.06,0,.09.32-.17.54-.08.8-.2.25.16.77-.14,1.09-.06l0,0c.07-.06.1,0,.15,0s-.08,0,0-.06a14.4,14.4,0,0,1,2-.22c.24,0,.09-.26.41-.2l-.07.1c.47-.18,1-.16,1.46-.33,0,0,0,0-.07.06s.37-.06.36-.11,0,0,.08.06.24-.12.3-.06,0,0,0,0,.3,0,.23-.11c.18,0,.33-.08.48-.06s.32,0,.33-.13c0,.12.32,0,.43,0s.1,0,.07.08c.12,0,.24-.06.21-.12.26.1.45-.19.62,0a10.12,10.12,0,0,1,1-.31c0,.12-.37.07-.34.19a3.55,3.55,0,0,1,.82-.26c.08,0,0,.06-.07.09.32-.11.64-.1.91-.21,0,0,0,0-.05,0s.13,0,.12,0l-.05,0c-.11-.06.2-.2.2-.24-.07.17.29,0,.17.21,0,0,.08,0,.06-.09s.08,0,0,.07c.2-.06.12-.1.31-.13,0,0,0,0-.05.07a.53.53,0,0,1,.33-.13s0,0,0,0c.27,0,.44-.21.74-.21-.07.13.11,0,.14.11l.15,0-.07,0c.14,0,.25-.11.37-.1l-.09.06.26-.06-.16,0c.13-.07,0-.12.16-.12,0,0,.13,0,.22,0h0a.4.4,0,0,1,.23-.08s0,.12,0,.13.32-.07.39-.17,0,.07,0,.08l0-.07c.07,0,.08,0,.08.06.19,0-.09-.12.15-.1,0,0,0,0,0,0,.24,0,.44-.11.66-.11s-.18,0-.1.12a7.86,7.86,0,0,1,.92-.25h-.06c0-.14.23,0,.37-.06,0,0,0,.09,0,.07a3.3,3.3,0,0,0,.71-.19l0,0c.12,0,.32,0,.45,0s.1,0,.05-.09c.43.13.74-.24,1.12-.13,0,0-.09.05-.06.05l.3-.09s0,0-.12-.06a.27.27,0,0,1,.19-.1c-.13.06,0,.1.08.12s0,0,0-.06c.18.08,0-.12.24-.09v0c.08,0,.14-.09.23-.09s-.08.05-.07.1.21-.17.34-.12c0,0-.13,0-.17.07a.35.35,0,0,0,.23,0h.15c.12-.21.3-.09.49-.24-.18.15,0,.07,0,.15s.14,0,.12,0,.17,0,.29-.09c0,0,.11,0,.1.06s0,0,0-.08c.18-.12.48,0,.74-.13s.26-.19.48-.27-.05.11-.05.11a.61.61,0,0,0,.33,0s0,0,0,.06,0-.1.17-.09a.32.32,0,0,1-.08.12c.11,0,.21-.1.32-.15s-.06.08-.09.12.32-.1.34-.17h-.08s0,.05,0,.07a.11.11,0,0,1-.17,0l.08,0c-.11-.14-.32.07-.48.09l0-.12-.15.12s-.08-.08,0-.11c-.12,0-.1.06-.21,0s0,0,0,0l-.11,0s0-.07,0-.07c-.21,0-.31.14-.4.07h0c-.27.08,0,.08-.21.21l-.17-.17,0,.08s-.08,0-.08,0,0,0,0,.09-.38.1-.43,0c0,.07.14,0,0,.1-.06-.13-.17,0-.31,0,0-.08.16-.06,0-.11-.06.14-.25,0-.35.06s-.23.08-.41.14a2.79,2.79,0,0,0-.52,0v0c0,.1-.19.11-.31.15s0-.08.08-.12l-.12,0a.22.22,0,0,1-.13.08l0-.08a1.88,1.88,0,0,1-.52.13c0,.07.19.16,0,.24,0,0,0-.1,0-.12s-.06,0-.1,0l.07-.08c-.09,0,0,.06-.11.07s-.06,0-.06-.07.07,0,.09,0a.4.4,0,0,1-.23,0s0,.07,0,.09-.07-.06-.16-.07-.14,0-.13.1-.06,0-.09,0-.37.07-.27.14h0c-.25.12-.56.05-.82.13v0a3,3,0,0,0-.45.15s-.12,0-.1-.06a.55.55,0,0,1-.31.06c.11-.07,0,0,.12-.06-.16,0-.21,0-.36.07,0-.08-.13-.07-.21,0l.12,0a.91.91,0,0,1-.23,0l0-.09c-.34-.06-.55.27-.83.14-.07.07.18,0,.12.09s-.33-.08-.37-.07c-.21,0-.17.15-.39.16,0,0,.07.1-.08.16s-.2-.1-.11-.14.05,0,.05,0,.11,0,0-.06v0c-.08,0-.28,0-.24,0s0,.06,0,.06c-.2,0-.3.05-.5.05,0,0,.07,0,0,0-.29,0-.12.08-.31.13s0-.12-.17,0,0-.08,0-.11c-.17.09-.34,0-.44,0l.09,0-.15,0,.06,0c-.05,0-.1,0-.1,0s.06.1,0,.17-.22.07-.25,0c.23,0,0-.08.15-.12l-.14,0s0,0,0,0c-.23,0-.09.11-.32.15,0-.05-.06-.08-.1-.06s.06.07,0,.12-.16.05-.23.06h.09s-.1.06-.2.09.09,0,0,0-.27,0-.42,0,0-.09-.09-.1-.2,0-.38,0c.06,0,.07,0-.05.12l.3-.1-.18.13a1.91,1.91,0,0,1,.24-.07c-.08.06-.08,0,0,.09-.15-.07-.25.1-.4.06l0-.16c-.24,0-.38.15-.68.15l.1,0c0,.06-.17,0-.26.07s-.06-.06-.11-.08-.21,0-.22.14l-.14,0c-.23,0-.24.19-.46.21.06-.07-.05-.09.09-.15-.07,0-.14,0-.14.05s-.19.1-.27.06,0,.08-.11.09,0,0,0,0-.13,0,0,.1c-.25-.12-.63.12-.85,0l-.5.12s0,0,0,0c-.21,0-.1.17-.34.15s.12-.07,0-.08c-.06-.17-.28.06-.45,0l0,0c-.13,0-.28.12-.48.14,0,0,0,0,0,0a1.45,1.45,0,0,1-.55.23c.05-.07.08,0,0-.11s0,.11-.13.15-.18,0-.21-.11l.16,0c-.1-.08-.21,0-.29,0v0c-.24.05-.22.15-.48.19l0,0c-.13.13-.13,0-.26.07l-.06-.1a4.73,4.73,0,0,1-.47.2,2,2,0,0,1,.38-.23c-.09,0-.31.06-.35.12a.17.17,0,0,1,.12,0,.72.72,0,0,1-.43.19c0-.2-.49,0-.65-.1a6.22,6.22,0,0,1-1,.15c.16.13-.11,0-.06.18s-.12,0-.13,0l-.29-.06c-.07,0,.08,0,.07-.08-.2,0-.1,0-.23-.08,0,.06-.06.1-.17.09l.17,0c-.26.13-.26-.09-.52,0l.08-.07c-.14,0-.52.09-.63.24,0,0-.07-.06,0-.08a6.67,6.67,0,0,1-1,.23l0,0c-.06,0-.1.09-.18.07s0,0,0,0a.48.48,0,0,1-.24.08l.06,0c-.34,0-.49.19-.76.26,0-.12-.28-.11-.41-.11h0a5,5,0,0,0-1,.3,5.72,5.72,0,0,0-1.12.06c.06,0,0,.09-.05.11s-.22.12-.22,0h0c-.08-.1-.25,0-.38,0v.14c-.38-.14-.89.22-1.11.08-.08,0-.18.06-.26.11v-.08a3.26,3.26,0,0,0-.63.1l0-.06c-.17,0-.17.24-.32.27l-.07-.1a2.64,2.64,0,0,0-.84.14.06.06,0,0,1,0-.06c-.13,0-.53,0-.45.15,0-.09-.29,0-.44.11v-.08a.48.48,0,0,1-.29.2s0,0,0,0c-.15,0-.1.08-.28.07l.06,0a.24.24,0,0,0-.21.11c-.08,0-.28,0-.31,0a.19.19,0,0,1-.17.11s0,0,0-.06c-.26,0-.35.15-.53.1a.08.08,0,0,0,0,0l.34,0c0-.07-.17,0-.06-.17-.12.07-.32.22-.47.21l0,0h0a.17.17,0,0,0-.1,0h-.13s-.18,0-.26,0-.08.08,0,.12l.07,0h0l.2,0a.22.22,0,0,1-.21.06l-.09.14c-.12-.09-.34-.11-.38-.17-.23.08-.55.12-.68.28s-.09,0-.11,0,.08,0,.1,0-.4.08-.42.18c-.18,0,.08-.1-.15,0l0,0c-.49-.08-.71.37-1.26.25,0,0,.06,0,.07,0-.6,0-1.19.28-1.79.23-.16,0-.17.07-.26.13l0-.07-.16.12c-.23.1-.45-.13-.73.05l0,0c-.11,0-.34.08-.33,0s0,.06-.08,0v0l-.25.12c-.22,0,0-.17-.31-.13-.11,0-.3.17-.25.19s.12,0,.13,0l-.1,0c0,.12-.06.26.21.31l.17-.11.06,0-.15,0c.1,0,.14,0,.2-.06a.1.1,0,0,0,.08.05l.16-.14s-.06.1.06.11-.1-.09,0-.15.08.09.17,0,0,0,0,.07.24-.06.27-.13.3-.07.31,0a.55.55,0,0,1,.22-.13c-.12.16.31,0,.29.11.09-.14.39-.12.58-.22a.09.09,0,0,1-.05,0,.53.53,0,0,1,.23,0c0-.11.16-.16.24-.24.15.08-.06.13,0,.22,0-.08.22-.12.16-.18.12,0,.1,0,.16.09,0-.13.1,0,.17-.13s.06.11.21,0S134.91,124.33,134.91,124.33Zm3.86-.86h0l-.08,0Zm.33-.06-.14,0a0,0,0,0,1,0-.05S139.05,123.4,139.1,123.41Zm-.78-.39c.05,0,.07,0,.08,0l-.09,0h0S138.31,123,138.32,123Z"/><path class="cls-11" d="M138.25,123.13h0v0Z"/><path class="cls-11" d="M168,118.35h0Z"/><polygon class="cls-11" points="143.65 122.81 143.65 122.79 143.62 122.81 143.65 122.81"/><path class="cls-11" d="M169.82,118.3s0,0,0,0Z"/><path class="cls-11" d="M170.6,118.19h0Z"/><path class="cls-11" d="M171.21,118.13v0h0Z"/><path class="cls-11" d="M161.69,119.78h0Z"/><path class="cls-11" d="M164.5,119.14l-.09,0C164.46,119.19,164.5,119.19,164.5,119.14Z"/><path class="cls-11" d="M158.54,120.39Z"/><path class="cls-11" d="M164.28,119.21a.19.19,0,0,0,.13,0Z"/><path class="cls-11" d="M173.81,117.73h0Z"/><path class="cls-11" d="M173.84,117.72l0,0S173.84,117.71,173.84,117.72Z"/><path class="cls-11" d="M173.94,117.67l-.07,0A.07.07,0,0,0,173.94,117.67Z"/><path class="cls-11" d="M173,117.83v0Z"/><path class="cls-11" d="M172.77,117.88c.06,0,.15,0,.23,0v0S172.82,117.82,172.77,117.88Z"/><path class="cls-11" d="M171.71,117.71h.2s-.09,0,0-.08C171.64,117.58,172,117.68,171.71,117.71Z"/><path class="cls-11" d="M171.08,117.77c.1,0,0,0,0,0S171,117.76,171.08,117.77Z"/><path class="cls-11" d="M166.55,118.52v-.07C166.47,118.47,166.55,118.48,166.55,118.52Z"/><polygon class="cls-11" points="165.74 119.01 165.83 119.04 165.86 118.97 165.74 119.01"/><polygon class="cls-11" points="165.15 118.61 165.18 118.6 165.05 118.65 165.15 118.61"/><path class="cls-11" d="M157.55,119.89l0,.08S157.64,119.85,157.55,119.89Z"/><path class="cls-11" d="M154.28,120.52a.15.15,0,0,0-.19,0C154.16,120.51,154.24,120.53,154.28,120.52Z"/><polygon class="cls-11" points="144.41 122 144.47 121.97 144.35 122.01 144.41 122"/><text class="cls-12" transform="translate(121.96 106.8) rotate(-74.24)">*</text><text class="cls-13" transform="translate(123.17 101.5) rotate(-60.25)">　</text><text class="cls-13" transform="matrix(0.65, -0.76, 0.76, 0.65, 128.04, 93.63)"> </text><text class="cls-13" transform="matrix(0.69, -0.72, 0.72, 0.69, 129.26, 92.18)"> </text><text class="cls-12" transform="translate(130.41 90.8) rotate(-39.12)">F</text><text class="cls-12" transform="matrix(0.88, -0.48, 0.48, 0.88, 134.63, 87.33)">O</text><text class="cls-12" transform="matrix(0.95, -0.31, 0.31, 0.95, 139.41, 84.7)">O</text><text class="cls-12" transform="translate(144.59 82.99) rotate(-7.67)">C</text><text class="cls-12" transform="translate(150.01 82.23) rotate(2.79)">H</text><text class="cls-12" transform="matrix(0.97, 0.23, -0.23, 0.97, 155.47, 82.47)">O</text><text class="cls-12" transform="translate(160.79 83.71) rotate(23.87)">W</text><text class="cls-14" transform="matrix(0.85, 0.52, -0.52, 0.85, 165.82, 86.04)"> </text><text class="cls-14" transform="matrix(0.81, 0.58, -0.58, 0.81, 167.75, 87.21)"> </text><text class="cls-14" transform="matrix(0.77, 0.64, -0.64, 0.77, 169.61, 88.53)"> </text><text class="cls-14" transform="matrix(0.72, 0.7, -0.7, 0.72, 171.34, 89.98)"> </text><text class="cls-14" transform="matrix(0.66, 0.75, -0.75, 0.66, 172.98, 91.57)"> </text><text class="cls-12" transform="translate(174.52 93.13) rotate(56.1)">*</text><text class="cls-12" transform="translate(177.59 97.66) rotate(66.66)"> </text><text class="cls-12" transform="translate(180.94 111.61) rotate(98.41)">*</text><text class="cls-12" transform="translate(180.16 117.03) rotate(108.98)">	</text><text class="cls-12" transform="matrix(-0.44, 0.9, -0.9, -0.44, 179.09, 120.52)">P</text><text class="cls-12" transform="matrix(-0.59, 0.81, -0.81, -0.59, 176.73, 125.43)">O</text><text class="cls-12" transform="matrix(-0.73, 0.68, -0.68, -0.73, 173.51, 129.85)">S</text><text class="cls-12" transform="matrix(-0.84, 0.54, -0.54, -0.84, 169.54, 133.6)">T</text><text class="cls-12" transform="matrix(-0.93, 0.38, -0.38, -0.93, 164.94, 136.58)"> </text><text class="cls-12" transform="translate(159.89 138.66) rotate(168.38)">O</text><text class="cls-12" transform="translate(154.55 139.79) rotate(178.75)">F</text><text class="cls-12" transform="matrix(-0.99, -0.16, 0.16, -0.99, 149.08, 139.93)">F</text><text class="cls-12" transform="matrix(-0.94, -0.34, 0.34, -0.94, 143.68, 139.07)">I</text><text class="cls-12" transform="translate(138.56 137.25) rotate(-149.74)">C</text><text class="cls-12" transform="translate(133.81 134.5) rotate(-139.27)">E</text><text class="cls-12" transform="matrix(-0.63, -0.78, 0.78, -0.63, 129.65, 130.96)"> </text><text class="cls-12" transform="translate(126.2 126.72) rotate(-118.27)">*</text><text class="cls-12" transform="translate(123.6 121.92) rotate(-107.72)"> </text><text class="cls-15" transform="translate(127.55 119.63) rotate(-9.35)">02.09.10</text></g></g></svg>