<svg width="610" height="323" viewBox="0 0 610 323" fill="none" xmlns="http://www.w3.org/2000/svg">
<path opacity="0.5" d="M572.893 158.105C563.256 230.946 523.688 259.507 467.285 279.651C411.878 303.937 330.153 328.216 286.786 321.378C219.898 310.83 224.304 276.786 157.907 258.195C104.113 243.133 36.2873 257.626 8.99761 253.286C-36.7322 246.014 -78.3821 208.611 -84.8755 162.037C-92.2976 108.802 -38.3113 51.491 41.743 1.12717C112.129 -43.1542 228.082 -96.5714 307.648 -87.2862C449.907 -70.6848 414.272 24.1445 477.552 38.5079C540.832 52.8713 581.377 93.9891 572.893 158.105Z" fill="#B8E6FE"/>
<path d="M501.399 251.066L501.267 251.113L501.138 251.169C473.621 263.231 439.548 275.297 407.003 283.489C374.314 291.717 343.707 295.894 322.869 292.608C290.355 287.481 265.667 272.32 245.529 257.255C240.491 253.486 235.751 249.733 231.23 246.137C230.862 245.845 230.495 245.553 230.129 245.262C226.022 241.995 222.078 238.857 218.308 236.02C210.183 229.906 202.394 224.811 194.777 222.679C167.092 214.927 135.944 216.586 108.713 219.501C101.883 220.233 95.2653 221.048 88.9969 221.821L88.7791 221.848C82.5786 222.613 76.7348 223.333 71.3089 223.9C60.2164 225.057 51.3249 225.51 45.085 224.518C0.853991 217.484 -39.236 181.27 -45.4546 136.667C-48.9444 111.636 -38.0662 85.1062 -15.8292 58.2377C6.37192 31.4126 39.4946 4.7574 79.3323 -20.3053C114.331 -42.3237 160.67 -66.6168 208.105 -84.2354C255.642 -101.892 303.806 -112.664 342.644 -108.131C377.754 -104.034 401.576 -95.1476 418.595 -84.1092C435.588 -73.0885 446.066 -59.7521 454.26 -46.2886C457.809 -40.457 460.906 -34.6433 463.952 -28.9254C464.444 -28.0012 464.935 -27.0796 465.426 -26.1608C468.928 -19.6126 472.452 -13.2024 476.491 -7.40426C484.673 4.34211 495.081 13.7215 512.126 17.5905C543.185 24.6402 568.267 38.1692 584.539 57.4137C600.733 76.5673 608.494 101.721 604.387 132.762C599.66 168.495 587.657 193.001 570.21 211.04C552.687 229.158 529.365 241.078 501.399 251.066Z" stroke="#51A2FF" stroke-width="8"/>
</svg>
